<svg id="svg" version="1.1" xmlns="http://www.w3.org/2000/svg" xmlns:xlink="http://www.w3.org/1999/xlink" width="400"
  height="400" viewBox="0, 0, 400, 385">
  <g id="svgg">
    <path id="path0"
      d="M194.604 39.194 C 194.470 39.411,194.392 42.568,194.430 46.210 C 194.469 49.853,194.373 52.961,194.218 53.117 C 194.063 53.272,191.116 53.490,187.668 53.600 L 181.400 53.800 181.287 58.087 L 181.173 62.375 176.487 62.487 L 171.800 62.600 171.600 77.800 L 171.400 93.000 163.800 93.000 L 156.200 93.000 156.086 89.114 L 155.971 85.228 151.886 85.114 L 147.800 85.000 147.600 82.000 L 147.400 79.000 136.600 78.800 L 125.800 78.600 125.692 70.300 L 125.584 62.000 121.005 62.000 L 116.427 62.000 116.314 57.700 L 116.200 53.400 110.800 53.200 L 105.400 53.000 105.291 46.100 L 105.181 39.200 95.787 39.200 L 86.393 39.200 86.496 59.300 L 86.600 79.400 91.400 79.600 L 96.200 79.800 96.307 90.300 L 96.413 100.800 100.964 100.800 C 104.744 100.800,105.555 100.907,105.757 101.433 C 106.108 102.348,106.044 126.911,105.690 127.469 C 105.498 127.769,103.741 127.985,100.796 128.069 L 96.200 128.200 96.000 124.200 L 95.800 120.200 86.419 120.092 C 75.593 119.968,76.415 120.345,76.406 115.500 L 76.400 112.000 72.200 112.000 L 68.000 112.000 68.000 115.751 C 68.000 120.534,68.096 120.457,62.343 120.314 L 57.800 120.200 57.686 116.095 L 57.572 111.990 42.686 112.095 L 27.800 112.200 27.800 124.000 L 27.800 135.800 31.800 136.000 L 35.800 136.200 35.914 140.300 L 36.028 144.400 42.114 144.406 C 49.534 144.414,49.139 144.182,49.283 148.613 L 49.400 152.200 53.000 152.220 C 58.517 152.250,58.000 151.840,58.000 156.187 L 58.000 159.975 62.700 160.087 L 67.400 160.200 67.505 174.100 L 67.610 188.000 76.725 188.000 C 87.609 188.000,86.800 187.567,86.800 193.400 C 86.800 198.935,86.927 198.800,81.720 198.800 L 77.600 198.800 77.600 202.626 C 77.600 207.995,77.595 208.000,73.019 208.000 C 67.703 208.000,68.000 208.286,68.000 203.157 L 68.000 198.800 47.800 198.800 L 27.600 198.800 27.595 202.500 C 27.586 208.306,27.844 208.000,22.953 208.000 L 18.800 208.000 18.800 212.400 L 18.800 216.800 22.300 216.805 C 27.744 216.814,27.454 216.557,27.267 221.213 C 27.179 223.394,27.221 225.630,27.360 226.183 L 27.612 227.187 38.306 227.293 L 49.000 227.400 49.114 231.500 L 49.228 235.600 53.390 235.600 C 58.393 235.600,58.099 235.245,58.155 241.351 L 58.200 246.200 81.563 246.303 C 98.008 246.376,105.085 246.538,105.463 246.852 C 106.038 247.330,106.157 259.429,105.648 265.600 L 105.400 268.600 100.908 268.713 L 96.416 268.826 96.308 277.113 L 96.200 285.400 91.547 285.512 L 86.893 285.625 86.603 289.512 C 86.243 294.346,87.052 293.987,76.495 293.994 L 67.589 294.000 67.695 307.300 L 67.800 320.600 72.300 320.713 L 76.800 320.826 76.800 326.205 C 76.800 332.514,76.415 332.107,82.200 331.918 L 85.800 331.800 85.911 326.300 L 86.023 320.800 95.611 320.800 L 105.200 320.800 105.200 315.643 C 105.200 311.309,105.301 310.447,105.833 310.243 C 106.181 310.109,115.811 310.000,127.233 310.000 L 148.000 310.000 148.006 306.300 C 148.014 301.524,147.893 301.655,152.414 301.516 L 156.200 301.400 156.314 297.500 L 156.429 293.600 163.814 293.600 L 171.200 293.600 171.278 298.100 C 171.321 300.575,171.295 309.209,171.220 317.287 L 171.085 331.974 176.042 332.087 L 181.000 332.200 181.106 343.700 L 181.212 355.200 191.594 355.200 L 201.975 355.200 202.088 350.300 L 202.200 345.400 205.900 345.285 L 209.600 345.170 209.600 332.997 L 209.600 320.825 214.500 320.712 L 219.400 320.600 219.507 311.289 L 219.615 301.978 225.107 302.089 L 230.600 302.200 230.800 306.200 L 231.000 310.200 235.600 310.400 L 240.200 310.600 240.400 315.400 L 240.600 320.200 243.266 320.318 C 244.733 320.382,251.393 320.562,258.066 320.718 L 270.200 321.000 270.311 326.240 L 270.422 331.480 296.268 331.771 C 317.569 332.012,322.174 331.970,322.455 331.532 C 322.642 331.239,322.752 326.590,322.698 321.200 L 322.600 311.400 317.900 311.287 L 313.200 311.175 313.200 316.187 L 313.200 321.200 307.027 321.200 C 299.532 321.200,300.204 322.271,300.588 310.937 L 300.877 302.422 294.939 302.311 L 289.000 302.200 288.800 298.200 L 288.600 294.200 284.092 294.087 L 279.584 293.974 279.692 285.887 L 279.800 277.800 311.200 277.686 C 328.470 277.624,342.825 277.494,343.100 277.399 C 343.820 277.149,343.798 269.462,343.076 268.863 C 342.788 268.624,340.583 268.377,338.176 268.314 L 333.800 268.200 333.688 263.300 L 333.575 258.400 328.611 258.400 C 322.701 258.400,323.092 258.808,323.176 252.732 C 323.261 246.553,323.495 246.800,317.551 246.800 L 312.800 246.800 312.740 241.800 C 312.707 239.050,312.662 236.575,312.640 236.300 C 312.609 235.916,315.023 235.753,323.000 235.600 L 333.400 235.400 333.514 231.300 L 333.628 227.200 338.614 227.200 L 343.600 227.200 343.600 222.215 L 343.600 217.230 347.300 217.115 L 351.000 217.000 351.114 212.615 C 351.250 207.399,351.036 207.614,356.100 207.606 L 360.000 207.600 360.000 203.649 C 360.000 198.408,361.182 198.830,346.166 198.706 L 333.400 198.600 333.287 193.900 L 333.175 189.200 317.049 189.200 L 300.923 189.200 300.662 184.341 C 300.324 178.056,299.966 178.400,306.849 178.400 L 312.400 178.400 312.400 173.645 L 312.400 168.891 314.100 168.681 C 315.035 168.565,317.330 168.445,319.200 168.414 C 323.561 168.341,323.172 169.505,323.294 156.186 L 323.400 144.600 328.300 144.488 L 333.200 144.375 333.200 136.468 C 333.200 126.922,332.766 127.600,338.880 127.600 L 343.600 127.600 343.600 119.751 L 343.600 111.901 333.700 112.097 L 323.800 112.292 323.600 115.846 C 323.490 117.801,323.254 119.625,323.076 119.900 C 322.824 120.290,318.000 120.400,301.184 120.400 L 279.615 120.400 279.507 111.100 L 279.400 101.800 274.400 101.600 L 269.400 101.400 269.400 90.600 L 269.400 79.800 274.500 79.688 L 279.600 79.576 279.600 62.775 L 279.600 45.974 275.100 46.087 L 270.600 46.200 270.200 49.400 C 269.650 53.799,269.924 53.600,264.419 53.600 C 258.860 53.600,259.200 53.273,259.200 58.620 L 259.200 62.375 254.500 62.487 L 249.800 62.600 249.692 70.687 L 249.584 78.774 245.092 78.887 L 240.600 79.000 240.496 81.200 C 240.299 85.393,240.575 85.158,235.696 85.287 L 231.400 85.400 231.286 89.300 L 231.171 93.200 220.805 93.200 C 208.529 93.200,209.656 93.885,209.909 86.574 C 210.173 78.917,210.314 79.200,206.241 79.200 C 201.661 79.200,201.970 80.203,202.094 65.752 L 202.200 53.400 205.598 53.282 C 209.957 53.131,209.730 53.588,209.390 45.639 L 209.098 38.800 201.972 38.800 C 197.726 38.800,194.749 38.959,194.604 39.194 M220.313 116.093 L 220.427 120.386 230.513 120.493 L 240.600 120.600 240.800 124.200 L 241.000 127.800 245.000 128.000 L 249.000 128.200 249.114 132.100 L 249.229 136.000 254.214 136.000 L 259.200 136.000 259.200 143.567 C 259.200 153.288,258.653 152.400,264.637 152.400 L 269.589 152.400 269.695 165.500 L 269.800 178.600 274.703 178.712 L 279.606 178.825 279.503 203.112 L 279.400 227.400 274.815 227.514 C 269.145 227.655,269.614 226.740,269.606 237.688 L 269.600 246.775 264.700 246.888 L 259.800 247.000 259.600 252.400 L 259.400 257.800 254.815 257.914 C 249.325 258.050,249.614 257.741,249.606 263.500 L 249.600 268.000 245.208 268.000 C 240.070 268.000,240.458 267.558,240.300 273.600 L 240.200 277.400 225.600 277.418 C 217.570 277.428,209.065 277.473,206.700 277.518 L 202.400 277.600 202.400 281.400 L 202.400 285.200 191.800 285.200 L 181.200 285.200 181.200 281.463 L 181.200 277.726 174.300 277.464 C 170.505 277.320,165.034 277.202,162.143 277.201 C 155.969 277.200,156.400 277.592,156.400 271.967 L 156.400 268.000 146.013 268.000 L 135.625 268.000 135.513 263.300 L 135.400 258.600 131.205 258.485 C 126.062 258.344,126.289 258.585,126.347 253.329 C 126.373 250.948,126.291 248.505,126.165 247.900 L 125.936 246.800 121.411 246.800 C 116.075 246.800,116.400 247.139,116.400 241.575 C 116.400 236.894,116.904 237.246,110.000 237.098 L 105.400 237.000 105.408 232.300 C 105.412 229.715,105.457 214.370,105.508 198.200 L 105.600 168.800 111.000 168.800 L 116.400 168.800 116.400 160.632 L 116.400 152.464 118.900 152.216 C 120.275 152.080,122.390 152.020,123.600 152.084 L 125.800 152.200 126.000 144.200 L 126.200 136.200 130.800 136.000 L 135.400 135.800 135.515 132.107 L 135.630 128.413 145.915 128.307 L 156.200 128.200 156.315 124.500 L 156.430 120.800 163.515 120.794 C 167.412 120.791,170.868 120.618,171.197 120.411 C 171.884 119.976,171.859 120.148,171.939 115.297 L 172.000 111.594 196.100 111.697 L 220.200 111.800 220.313 116.093 M387.200 397.000 L 387.200 400.000 390.400 400.000 L 393.600 400.000 393.600 397.000 L 393.600 394.000 390.400 394.000 L 387.200 394.000 387.200 397.000 "
      stroke="none" fill="#e6a012" fill-rule="evenodd"></path>
    <path id="path1"
      d="M194.323 38.500 C 194.281 38.555,194.146 41.840,194.023 45.800 L 193.800 53.000 187.500 53.110 C 184.035 53.171,181.200 53.351,181.199 53.510 C 181.198 53.873,193.837 53.500,194.208 53.127 C 194.358 52.976,194.507 49.736,194.540 45.927 L 194.600 39.000 201.885 38.891 L 209.170 38.782 209.302 42.491 L 209.434 46.200 209.517 42.300 L 209.600 38.400 202.000 38.400 C 197.820 38.400,194.366 38.445,194.323 38.500 M86.186 39.293 C 86.079 39.572,86.039 48.800,86.096 59.800 L 86.200 79.800 91.093 79.912 L 95.987 80.025 96.093 90.512 L 96.200 101.000 100.800 101.200 L 105.400 101.400 105.506 114.310 C 105.588 124.433,105.502 127.258,105.106 127.391 C 104.127 127.721,96.405 127.816,96.233 127.500 C 96.138 127.324,96.107 127.410,96.164 127.690 C 96.303 128.373,105.247 128.165,105.690 127.469 C 106.044 126.911,106.108 102.348,105.757 101.433 C 105.555 100.907,104.744 100.800,100.964 100.800 L 96.413 100.800 96.307 90.300 L 96.200 79.800 91.400 79.600 L 86.600 79.400 86.496 59.300 L 86.393 39.200 95.787 39.200 L 105.181 39.200 105.291 46.100 L 105.400 53.000 110.863 53.200 C 113.868 53.310,116.242 53.265,116.139 53.100 C 116.037 52.935,113.628 52.800,110.786 52.800 L 105.619 52.800 105.509 45.900 L 105.400 39.000 95.890 38.893 C 88.499 38.809,86.337 38.899,86.186 39.293 M269.829 48.100 C 269.703 49.255,269.555 50.830,269.500 51.600 L 269.400 53.000 264.300 53.112 C 259.772 53.211,259.204 53.301,259.232 53.912 C 259.251 54.329,259.343 54.403,259.465 54.100 C 259.610 53.739,260.990 53.600,264.410 53.600 C 267.765 53.600,269.247 53.454,269.476 53.100 C 269.921 52.413,270.708 46.000,270.348 46.000 C 270.188 46.000,269.955 46.945,269.829 48.100 M279.783 62.800 C 279.783 72.150,279.836 75.975,279.900 71.300 C 279.964 66.625,279.964 58.975,279.900 54.300 C 279.836 49.625,279.783 53.450,279.783 62.800 M209.587 50.400 L 209.400 53.000 206.200 53.227 L 203.000 53.453 206.051 53.527 C 209.782 53.616,210.092 53.343,209.907 50.134 L 209.773 47.800 209.587 50.400 M202.267 53.467 C 201.754 53.979,201.959 78.199,202.480 78.720 C 202.776 79.016,204.229 79.200,206.272 79.200 C 210.309 79.200,210.173 78.924,209.909 86.574 C 209.807 89.515,209.885 92.209,210.082 92.560 C 210.655 93.585,231.215 93.526,231.168 92.500 C 231.150 92.082,231.056 92.001,230.935 92.300 C 230.781 92.682,228.326 92.800,220.567 92.800 C 212.721 92.800,210.391 92.686,210.362 92.300 C 210.340 92.025,210.355 89.368,210.393 86.397 C 210.496 78.493,210.690 78.853,206.260 78.714 L 202.600 78.600 202.600 65.900 C 202.600 58.915,202.585 53.200,202.567 53.200 C 202.548 53.200,202.413 53.320,202.267 53.467 M120.991 61.893 L 125.584 62.025 125.692 70.313 L 125.800 78.600 136.600 78.800 L 147.400 79.000 147.600 82.000 L 147.800 85.000 151.800 85.031 L 155.800 85.063 152.000 84.831 L 148.200 84.600 148.080 81.811 C 147.924 78.201,148.645 78.413,136.508 78.406 L 126.016 78.400 125.908 70.100 L 125.800 61.800 121.099 61.780 L 116.399 61.760 120.991 61.893 M171.200 77.600 L 171.200 92.800 163.814 92.800 L 156.429 92.800 156.292 88.999 L 156.154 85.198 156.177 89.099 L 156.200 93.000 163.800 93.000 L 171.400 93.000 171.600 77.700 C 171.710 69.285,171.665 62.400,171.500 62.400 C 171.335 62.400,171.200 69.240,171.200 77.600 M249.116 70.600 C 249.052 75.111,249.128 78.801,249.284 78.800 C 249.441 78.800,249.621 75.110,249.684 70.600 C 249.748 66.089,249.672 62.399,249.516 62.400 C 249.359 62.400,249.179 66.090,249.116 70.600 M240.000 81.167 C 240.000 84.875,240.092 84.800,235.581 84.800 C 233.417 84.800,231.563 84.935,231.461 85.100 C 231.358 85.265,233.237 85.344,235.636 85.275 C 239.749 85.157,240.008 85.100,240.185 84.275 C 240.525 82.696,240.607 78.799,240.300 78.799 C 240.135 78.800,240.000 79.865,240.000 81.167 M269.381 80.107 C 269.274 80.385,269.234 85.290,269.293 91.007 L 269.400 101.400 274.400 101.600 L 279.400 101.800 279.625 105.200 L 279.851 108.600 279.925 105.380 C 280.023 101.164,280.071 101.200,274.320 101.200 L 269.600 101.200 269.600 90.612 L 269.600 80.025 274.500 79.899 L 279.400 79.773 274.487 79.686 C 270.827 79.622,269.525 79.729,269.381 80.107 M230.893 87.200 C 230.893 87.970,230.975 88.285,231.076 87.900 C 231.176 87.515,231.176 86.885,231.076 86.500 C 230.975 86.115,230.893 86.430,230.893 87.200 M279.688 114.700 L 279.600 120.400 301.176 120.400 C 317.998 120.400,322.824 120.290,323.076 119.900 C 323.254 119.625,323.490 117.801,323.600 115.846 L 323.800 112.292 333.700 112.097 L 343.600 111.901 343.600 119.751 L 343.600 127.600 338.880 127.600 C 332.766 127.600,333.200 126.922,333.200 136.468 L 333.200 144.375 328.300 144.488 L 323.400 144.600 323.200 156.400 L 323.000 168.200 320.200 168.439 L 317.400 168.678 320.400 168.639 L 323.400 168.600 323.506 156.700 L 323.612 144.800 328.598 144.800 L 333.584 144.800 333.692 136.500 L 333.800 128.200 338.800 128.000 L 343.800 127.800 343.800 119.800 L 343.800 111.800 333.827 111.693 C 322.233 111.568,323.065 111.234,322.800 116.118 L 322.600 119.800 301.311 119.903 L 280.023 120.007 279.899 114.503 L 279.775 109.000 279.688 114.700 M27.445 112.228 C 26.919 113.598,27.174 135.480,27.721 135.934 C 28.007 136.172,29.852 136.419,31.821 136.483 L 35.400 136.600 35.600 140.600 L 35.800 144.600 42.200 144.800 L 48.600 145.000 48.718 148.398 C 48.783 150.267,48.963 151.923,49.118 152.080 C 49.273 152.236,49.341 150.709,49.269 148.686 C 49.108 144.162,49.529 144.414,42.114 144.406 L 36.028 144.400 35.914 140.300 L 35.800 136.200 31.800 136.000 L 27.800 135.800 27.800 124.000 L 27.800 112.200 42.686 112.095 L 57.572 111.990 57.686 116.095 L 57.800 120.200 62.343 120.314 C 68.096 120.457,68.000 120.534,68.000 115.751 L 68.000 112.000 72.200 112.000 L 76.400 112.000 76.406 115.500 C 76.409 117.425,76.551 119.218,76.721 119.486 C 77.064 120.026,96.001 120.440,96.000 119.907 C 96.000 119.746,91.725 119.566,86.500 119.507 L 77.000 119.400 76.800 115.600 L 76.600 111.800 72.200 111.800 L 67.800 111.800 67.683 115.397 C 67.538 119.869,67.726 119.712,62.431 119.787 L 58.026 119.850 57.913 115.825 L 57.800 111.800 42.745 111.695 C 29.276 111.602,27.663 111.658,27.445 112.228 M171.939 115.297 C 171.859 120.148,171.884 119.976,171.197 120.411 C 170.868 120.618,167.412 120.791,163.515 120.794 L 156.430 120.800 156.315 124.500 L 156.200 128.200 145.915 128.307 L 135.630 128.413 135.515 132.107 L 135.400 135.800 130.800 136.000 L 126.200 136.200 126.000 144.200 L 125.800 152.200 123.600 152.084 C 122.390 152.020,120.275 152.080,118.900 152.216 L 116.400 152.464 116.400 160.632 L 116.400 168.800 111.000 168.800 L 105.600 168.800 105.508 198.200 C 105.457 214.370,105.412 229.715,105.408 232.300 L 105.400 237.000 110.000 237.098 C 116.904 237.246,116.400 236.894,116.400 241.575 C 116.400 247.139,116.075 246.800,121.411 246.800 L 125.936 246.800 126.165 247.900 C 126.291 248.505,126.373 250.948,126.347 253.329 C 126.289 258.585,126.062 258.344,131.205 258.485 L 135.400 258.600 135.513 263.300 L 135.625 268.000 146.013 268.000 L 156.400 268.000 156.400 271.967 C 156.400 277.592,155.969 277.200,162.143 277.201 C 165.034 277.202,170.505 277.320,174.300 277.464 L 181.200 277.726 181.200 281.463 L 181.200 285.200 191.800 285.200 L 202.400 285.200 202.400 281.400 L 202.400 277.600 206.700 277.518 C 209.065 277.473,217.570 277.428,225.600 277.418 L 240.200 277.400 240.300 273.600 C 240.458 267.558,240.070 268.000,245.208 268.000 L 249.600 268.000 249.606 263.500 C 249.614 257.741,249.325 258.050,254.815 257.914 L 259.400 257.800 259.600 252.400 L 259.800 247.000 264.700 246.888 L 269.600 246.775 269.606 237.688 C 269.614 226.740,269.145 227.655,274.815 227.514 L 279.400 227.400 279.503 203.112 L 279.606 178.825 274.703 178.712 L 269.800 178.600 269.695 165.500 L 269.589 152.400 264.637 152.400 C 258.653 152.400,259.200 153.288,259.200 143.567 L 259.200 136.000 254.214 136.000 L 249.229 136.000 249.114 132.100 L 249.000 128.200 245.000 128.000 L 241.000 127.800 240.800 124.200 L 240.600 120.600 230.513 120.493 L 220.427 120.386 220.313 116.093 L 220.200 111.800 196.100 111.697 L 172.000 111.594 171.939 115.297 M180.734 145.320 C 180.971 145.606,181.218 147.361,181.283 149.220 L 181.400 152.600 187.400 152.800 L 193.400 153.000 193.600 161.000 L 193.800 169.000 198.800 169.200 L 203.800 169.400 203.915 173.567 C 204.054 178.613,204.307 178.386,198.549 178.394 C 193.504 178.401,193.071 178.620,193.220 181.084 C 193.270 181.918,193.287 183.815,193.256 185.300 L 193.200 188.000 187.276 188.000 C 179.556 188.000,179.790 187.832,180.136 193.118 C 180.447 197.862,180.762 197.538,175.597 197.802 C 170.441 198.065,170.800 197.689,170.800 202.824 L 170.800 207.200 181.800 207.200 L 192.800 207.200 192.800 212.189 L 192.800 217.178 187.100 217.289 L 181.400 217.400 181.288 222.300 L 181.175 227.200 168.788 227.200 L 156.400 227.200 156.339 223.300 C 156.306 221.155,156.236 219.220,156.185 219.000 C 156.134 218.780,156.072 218.201,156.046 217.712 C 156.001 216.853,155.845 216.821,151.100 216.712 L 146.200 216.600 146.087 212.112 L 145.974 207.624 141.087 207.512 L 136.200 207.400 136.087 202.700 L 135.975 198.000 131.387 198.000 L 126.800 198.000 126.800 188.400 L 126.800 178.800 131.400 178.800 L 136.000 178.800 136.000 169.800 L 136.000 160.800 137.100 160.749 C 137.705 160.721,140.180 160.586,142.600 160.449 L 147.000 160.200 147.115 156.513 L 147.230 152.826 151.715 152.713 L 156.200 152.600 156.314 148.700 L 156.429 144.800 168.366 144.800 C 177.671 144.800,180.397 144.915,180.734 145.320 M54.705 152.283 C 55.202 152.379,55.922 152.375,56.305 152.275 C 56.687 152.175,56.280 152.096,55.400 152.101 C 54.520 152.105,54.207 152.187,54.705 152.283 M57.600 156.299 L 57.800 160.200 62.495 160.313 L 67.190 160.425 67.295 174.313 L 67.400 188.200 76.700 188.307 L 86.000 188.415 86.000 193.394 L 86.000 198.373 81.700 198.486 L 77.400 198.600 77.379 202.600 L 77.358 206.600 77.493 202.700 L 77.628 198.800 81.734 198.800 C 86.925 198.800,86.800 198.934,86.800 193.400 C 86.800 187.567,87.609 188.000,76.725 188.000 L 67.610 188.000 67.505 174.100 L 67.400 160.200 62.700 160.087 L 58.000 159.975 58.000 156.187 C 58.000 154.104,57.865 152.400,57.700 152.399 C 57.535 152.399,57.490 154.154,57.600 156.299 M314.900 168.676 C 315.285 168.776,315.915 168.776,316.300 168.676 C 316.685 168.575,316.370 168.493,315.600 168.493 C 314.830 168.493,314.515 168.575,314.900 168.676 M312.486 173.500 L 312.400 178.400 306.880 178.400 C 300.594 178.400,300.370 178.497,300.463 181.180 L 300.526 183.000 300.763 181.000 L 301.000 179.000 306.717 178.889 C 313.409 178.759,312.870 179.273,312.699 173.176 L 312.571 168.600 312.486 173.500 M164.972 169.728 C 164.861 170.019,164.821 172.044,164.885 174.228 L 165.000 178.200 179.100 178.305 L 193.200 178.410 193.200 173.805 L 193.200 169.200 179.187 169.200 C 167.944 169.200,165.135 169.304,164.972 169.728 M156.887 178.338 C 156.505 178.580,156.402 179.884,156.487 183.423 C 156.620 189.021,156.709 189.117,161.333 188.622 L 164.000 188.336 164.000 183.411 C 164.000 179.289,163.897 178.446,163.367 178.243 C 162.437 177.886,157.484 177.959,156.887 178.338 M300.800 188.900 C 300.800 189.065,308.084 189.200,316.987 189.200 L 333.175 189.200 333.287 193.900 L 333.400 198.600 346.166 198.706 C 361.182 198.830,360.000 198.408,360.000 203.649 L 360.000 207.600 356.100 207.606 C 353.955 207.609,351.987 207.748,351.727 207.913 C 351.208 208.243,350.784 217.202,351.287 217.201 C 351.445 217.200,351.625 215.175,351.687 212.700 L 351.800 208.200 356.000 208.000 L 360.200 207.800 360.314 203.901 C 360.492 197.866,361.822 198.400,346.599 198.400 L 333.625 198.400 333.513 193.700 L 333.400 189.000 317.100 188.800 C 308.135 188.690,300.800 188.735,300.800 188.900 M136.267 189.067 C 136.120 189.213,136.000 191.289,136.000 193.678 L 136.000 198.023 141.300 197.912 L 146.600 197.800 146.715 193.633 C 146.799 190.568,146.693 189.379,146.315 189.139 C 145.700 188.749,136.650 188.684,136.267 189.067 M177.200 189.855 C 177.200 190.170,177.623 190.400,178.200 190.400 C 178.750 190.400,179.200 190.241,179.200 190.047 C 179.200 189.852,178.750 189.607,178.200 189.502 C 177.529 189.374,177.200 189.490,177.200 189.855 M27.284 202.696 L 27.369 207.000 27.498 202.900 L 27.628 198.800 47.814 198.800 L 68.000 198.800 68.000 203.157 C 68.000 206.761,68.109 207.556,68.633 207.757 C 69.810 208.209,76.737 208.026,77.040 207.536 C 77.254 207.189,76.324 207.136,73.363 207.327 C 68.278 207.655,68.453 207.812,68.315 202.786 L 68.200 198.600 47.700 198.496 L 27.200 198.393 27.284 202.696 M18.573 208.127 C 18.461 208.417,18.422 210.532,18.485 212.827 L 18.600 217.000 22.501 217.023 L 26.402 217.046 22.601 216.908 L 18.800 216.771 18.800 212.399 L 18.800 208.027 23.100 207.898 L 27.400 207.770 23.087 207.685 C 19.827 207.621,18.726 207.729,18.573 208.127 M343.686 222.100 L 343.600 227.200 338.614 227.200 L 333.628 227.200 333.514 231.300 L 333.400 235.400 323.000 235.600 C 315.023 235.753,312.609 235.916,312.640 236.300 C 312.662 236.575,312.707 239.050,312.740 241.800 C 312.773 244.550,312.935 246.800,313.100 246.801 C 313.265 246.801,313.345 244.371,313.278 241.401 L 313.157 236.000 323.336 236.000 C 335.095 236.000,334.000 236.496,334.000 231.167 L 334.000 227.600 338.813 227.600 C 344.496 227.600,344.068 228.091,343.899 221.777 L 343.772 217.000 343.686 222.100 M48.325 227.508 C 48.707 227.778,48.828 228.950,48.769 231.839 L 48.688 235.800 53.044 235.909 C 56.559 235.997,57.497 236.147,57.900 236.685 C 58.175 237.053,58.400 237.175,58.400 236.956 C 58.400 235.897,57.289 235.600,53.334 235.600 L 49.228 235.600 49.114 231.532 C 49.024 228.324,48.873 227.431,48.400 227.302 C 47.931 227.175,47.915 227.220,48.325 227.508 M57.685 241.600 C 57.645 243.910,57.754 246.024,57.928 246.297 C 58.172 246.681,63.569 246.817,81.822 246.897 L 105.400 247.000 105.613 255.200 L 105.825 263.400 105.913 255.349 C 105.981 249.017,105.885 247.203,105.463 246.852 C 105.085 246.538,98.008 246.376,81.563 246.303 L 58.200 246.200 57.979 241.800 L 57.758 237.400 57.685 241.600 M322.721 247.301 C 323.094 247.754,323.223 249.295,323.176 252.732 C 323.092 258.808,322.701 258.400,328.611 258.400 L 333.575 258.400 333.688 263.300 L 333.800 268.200 338.176 268.314 C 340.583 268.377,342.788 268.624,343.076 268.863 C 343.471 269.191,343.600 269.141,343.600 268.662 C 343.600 268.122,342.883 268.008,338.900 267.913 L 334.200 267.800 334.000 263.000 L 333.800 258.200 328.711 258.088 L 323.622 257.976 323.511 252.521 C 323.421 248.095,323.287 247.028,322.800 246.868 C 322.297 246.702,322.285 246.772,322.721 247.301 M105.000 267.855 C 104.780 267.935,102.710 268.135,100.400 268.300 L 96.200 268.600 96.092 276.900 L 95.984 285.200 91.415 285.200 C 86.000 285.200,86.254 284.968,86.151 290.000 L 86.073 293.800 86.490 289.712 L 86.907 285.624 91.554 285.512 L 96.200 285.400 96.308 277.100 L 96.416 268.800 100.785 268.800 C 103.447 268.800,105.256 268.633,105.416 268.373 C 105.729 267.868,105.556 267.653,105.000 267.855 M318.800 277.600 L 294.200 277.809 318.900 277.905 C 335.164 277.967,343.600 277.863,343.600 277.600 C 343.600 277.380,343.555 277.243,343.500 277.295 C 343.445 277.348,332.330 277.485,318.800 277.600 M279.867 277.867 C 279.720 278.013,279.600 281.697,279.600 286.054 L 279.600 293.974 284.100 294.087 L 288.600 294.200 288.800 298.200 L 289.000 302.200 295.000 302.222 L 301.000 302.245 295.200 302.022 L 289.400 301.800 289.200 297.800 L 289.000 293.800 284.500 293.687 L 280.000 293.574 280.000 286.007 C 280.000 279.222,280.072 278.398,280.700 278.032 C 281.293 277.687,281.303 277.622,280.767 277.612 C 280.418 277.605,280.013 277.720,279.867 277.867 M289.105 277.883 C 289.602 277.979,290.322 277.975,290.705 277.875 C 291.087 277.775,290.680 277.696,289.800 277.701 C 288.920 277.705,288.607 277.787,289.105 277.883 M67.382 294.103 C 67.276 294.380,67.236 300.545,67.294 307.803 L 67.400 321.000 71.888 321.113 L 76.377 321.226 76.488 326.480 C 76.571 330.346,76.735 331.762,77.110 331.837 C 77.391 331.894,77.435 331.849,77.210 331.737 C 76.961 331.613,76.800 329.437,76.800 326.180 L 76.800 320.826 72.300 320.713 L 67.800 320.600 67.695 307.308 L 67.589 294.015 76.695 293.900 L 85.800 293.784 76.687 293.692 C 69.668 293.621,67.531 293.716,67.382 294.103 M156.314 297.500 L 156.200 301.400 152.414 301.516 C 147.893 301.655,148.014 301.524,148.006 306.296 L 148.000 309.993 126.900 310.100 L 105.800 310.207 127.086 310.304 L 148.372 310.400 148.486 306.300 L 148.600 302.200 152.386 302.084 C 156.889 301.946,156.786 302.053,156.794 297.500 L 156.800 294.000 163.771 294.000 C 170.073 294.000,170.759 294.067,170.924 294.700 C 171.062 295.227,171.119 295.177,171.154 294.500 L 171.200 293.600 163.814 293.600 L 156.429 293.600 156.314 297.500 M219.692 311.089 L 219.784 320.200 219.900 311.300 L 220.015 302.400 225.194 302.400 L 230.372 302.400 230.486 306.500 L 230.600 310.600 235.200 310.800 L 239.800 311.000 239.913 315.717 C 239.991 318.973,240.177 320.490,240.513 320.612 C 241.235 320.874,250.572 321.128,260.900 321.166 L 270.000 321.200 270.000 326.600 L 270.000 332.000 285.100 331.905 L 300.200 331.810 285.312 331.700 L 270.423 331.590 270.312 326.295 L 270.200 321.000 258.066 320.718 C 251.393 320.562,244.733 320.382,243.266 320.318 L 240.600 320.200 240.400 315.400 L 240.200 310.600 235.600 310.400 L 231.000 310.200 230.800 306.200 L 230.600 302.200 225.100 302.089 L 219.600 301.977 219.692 311.089 M171.346 306.200 C 171.347 308.400,171.414 309.249,171.495 308.087 C 171.576 306.924,171.576 305.124,171.493 304.087 C 171.411 303.049,171.345 304.000,171.346 306.200 M300.944 306.400 C 300.944 308.490,301.012 309.345,301.094 308.300 C 301.176 307.255,301.176 305.545,301.094 304.500 C 301.012 303.455,300.944 304.310,300.944 306.400 M105.200 315.600 L 105.200 320.800 95.621 320.800 L 86.042 320.800 85.921 326.401 C 85.854 329.481,85.935 332.001,86.100 332.001 C 86.265 332.000,86.400 329.570,86.400 326.600 L 86.400 321.200 96.000 321.200 L 105.600 321.200 105.600 315.800 C 105.600 312.830,105.510 310.400,105.400 310.400 C 105.290 310.400,105.200 312.740,105.200 315.600 M300.555 315.400 C 300.556 318.260,300.620 319.378,300.697 317.883 C 300.774 316.389,300.774 314.049,300.696 312.683 C 300.618 311.318,300.555 312.540,300.555 315.400 M312.999 311.300 C 312.683 312.201,312.592 321.202,312.900 321.201 C 313.065 321.200,313.200 318.939,313.200 316.176 L 313.200 311.153 318.001 311.276 C 320.641 311.344,322.801 311.265,322.801 311.100 C 322.799 310.550,313.194 310.746,312.999 311.300 M170.974 321.400 C 170.975 327.120,171.031 329.404,171.099 326.476 C 171.168 323.548,171.167 318.868,171.099 316.076 C 171.030 313.284,170.974 315.680,170.974 321.400 M214.500 320.699 L 209.600 320.825 209.600 332.997 L 209.600 345.170 205.900 345.285 L 202.200 345.400 202.088 350.293 L 201.975 355.187 191.588 355.304 L 181.200 355.420 191.700 355.410 L 202.200 355.400 202.312 350.515 L 202.424 345.630 206.112 345.515 L 209.800 345.400 209.906 333.300 L 210.012 321.200 214.582 321.200 C 217.198 321.200,219.259 321.029,219.400 320.800 C 219.536 320.580,219.592 320.439,219.524 320.486 C 219.456 320.534,217.195 320.630,214.500 320.699 M175.576 332.293 C 178.385 332.376,180.379 332.615,180.741 332.914 C 181.218 333.308,181.293 333.286,181.132 332.800 C 180.971 332.311,180.015 332.196,175.967 332.179 L 171.000 332.158 175.576 332.293 M389.111 393.893 C 390.051 393.978,391.491 393.977,392.311 393.891 C 393.130 393.805,392.360 393.736,390.600 393.737 C 388.840 393.739,388.170 393.809,389.111 393.893 M369.200 397.000 L 369.200 400.000 372.000 400.000 L 374.800 400.000 374.800 397.000 L 374.800 394.000 372.000 394.000 L 369.200 394.000 369.200 397.000 "
      stroke="none" fill="#fbae98" fill-rule="evenodd"></path>


    <path id="path4"
      d="M86.087 38.473 C 85.362 39.198,85.384 79.323,86.110 79.925 C 86.681 80.399,96.002 80.764,96.001 80.312 C 96.000 80.154,93.795 79.974,91.100 79.912 L 86.200 79.800 86.200 59.400 L 86.200 39.000 95.900 39.000 C 102.189 39.000,105.553 38.859,105.467 38.600 C 105.259 37.977,86.705 37.855,86.087 38.473 M194.100 38.265 C 193.726 38.416,193.600 40.272,193.600 45.623 L 193.600 52.780 187.300 52.890 L 181.000 53.000 180.885 57.186 C 180.748 62.187,180.989 61.967,175.640 61.967 C 173.348 61.967,171.320 62.120,171.132 62.308 C 170.944 62.496,170.840 69.479,170.900 77.825 L 171.010 93.000 171.105 77.712 L 171.200 62.425 176.100 62.312 L 181.000 62.200 181.113 57.710 L 181.226 53.220 187.513 53.110 L 193.800 53.000 194.023 45.800 C 194.146 41.840,194.281 38.555,194.323 38.500 C 194.366 38.445,197.792 38.400,201.937 38.400 L 209.474 38.400 209.730 45.468 C 210.039 54.009,210.198 53.677,205.831 53.562 L 202.600 53.476 202.600 66.038 L 202.600 78.600 206.273 78.715 C 209.335 78.810,209.981 78.944,210.151 79.515 C 210.302 80.024,210.333 79.995,210.272 79.400 C 210.198 78.673,209.854 78.590,206.495 78.485 L 202.800 78.370 202.800 66.185 L 202.800 54.000 206.120 54.000 C 210.586 54.000,210.400 54.348,210.400 46.000 C 210.400 41.058,210.257 38.817,209.920 38.480 C 209.441 38.001,195.234 37.808,194.100 38.265 M105.709 44.400 C 105.709 45.390,105.787 45.795,105.882 45.300 C 105.978 44.805,105.978 43.995,105.882 43.500 C 105.787 43.005,105.709 43.410,105.709 44.400 M270.089 45.823 C 269.297 46.377,269.200 46.793,269.200 49.623 L 269.200 52.800 264.280 52.800 C 258.226 52.800,258.400 52.656,258.400 57.680 L 258.400 61.600 254.080 61.600 C 248.435 61.600,248.800 60.999,248.800 70.280 L 248.800 78.000 244.876 78.000 C 239.793 78.000,239.511 78.197,239.702 81.610 L 239.846 84.200 239.923 81.513 L 240.000 78.826 244.500 78.713 L 249.000 78.600 249.108 70.500 L 249.217 62.400 253.728 62.400 C 259.343 62.400,259.200 62.533,259.200 57.332 L 259.200 53.224 264.300 53.112 L 269.400 53.000 269.500 51.600 C 269.555 50.830,269.703 49.255,269.829 48.100 L 270.058 46.000 275.029 46.000 L 280.000 46.000 280.000 62.767 C 280.000 75.806,279.889 79.578,279.500 79.735 C 279.123 79.887,279.120 79.945,279.486 79.968 C 280.521 80.036,280.664 78.091,280.766 62.548 L 280.871 46.495 279.947 45.848 C 278.650 44.939,271.377 44.921,270.089 45.823 M105.599 52.488 C 105.600 52.647,107.985 52.827,110.900 52.888 L 116.200 53.000 116.421 57.400 L 116.642 61.800 116.721 57.308 C 116.798 52.946,116.774 52.809,115.900 52.612 C 114.433 52.281,105.598 52.175,105.599 52.488 M126.091 70.300 L 126.000 78.400 136.367 78.400 C 148.880 78.400,148.000 78.154,148.000 81.655 C 148.000 83.516,148.164 84.480,148.500 84.591 C 149.418 84.897,156.332 85.004,155.863 84.706 C 155.608 84.544,153.915 84.409,152.100 84.406 L 148.800 84.400 148.800 82.089 C 148.800 77.843,149.255 78.000,136.986 78.000 L 126.417 78.000 126.300 70.100 L 126.182 62.200 126.091 70.300 M269.693 90.500 L 269.600 101.200 274.320 101.200 C 277.458 101.200,279.201 101.361,279.520 101.680 C 279.841 102.001,280.000 102.015,280.000 101.723 C 280.000 100.981,278.897 100.800,274.374 100.800 L 270.013 100.800 269.900 90.300 L 269.786 79.800 269.693 90.500 M230.880 84.880 C 230.572 85.188,230.404 86.727,230.412 89.180 C 230.422 92.142,230.523 92.831,230.862 92.247 C 231.136 91.775,231.202 90.540,231.038 88.942 C 230.636 85.020,230.821 84.853,235.707 84.698 L 239.800 84.569 235.580 84.484 C 232.729 84.427,231.204 84.556,230.880 84.880 M213.900 92.698 C 215.935 92.771,219.265 92.771,221.300 92.698 C 223.335 92.625,221.670 92.566,217.600 92.566 C 213.530 92.566,211.865 92.625,213.900 92.698 M95.999 101.300 C 96.000 101.465,98.070 101.600,100.600 101.600 L 105.200 101.600 105.200 114.400 L 105.200 127.200 100.814 127.200 L 96.429 127.200 96.314 123.300 L 96.200 119.400 86.700 119.293 L 77.200 119.186 77.200 115.616 C 77.200 113.653,77.065 111.963,76.900 111.860 C 76.735 111.758,76.690 113.412,76.800 115.537 L 77.000 119.400 86.500 119.507 L 96.000 119.614 96.000 123.175 C 96.000 128.122,95.719 127.841,100.508 127.691 C 102.759 127.620,104.827 127.485,105.106 127.391 C 105.502 127.258,105.588 124.433,105.506 114.310 L 105.400 101.400 100.699 101.200 C 98.114 101.090,95.999 101.135,95.999 101.300 M67.200 114.767 C 67.200 119.417,67.437 119.200,62.357 119.200 C 59.961 119.200,58.000 119.346,58.000 119.525 C 58.000 119.970,66.747 119.815,67.191 119.362 C 67.626 118.917,67.918 111.598,67.500 111.599 C 67.335 111.600,67.200 113.025,67.200 114.767 M322.643 112.233 C 322.509 112.581,322.400 114.379,322.400 116.229 L 322.400 119.593 301.100 119.702 L 279.800 119.811 301.200 119.805 L 322.600 119.800 322.800 116.200 C 322.910 114.220,323.146 112.375,323.324 112.100 C 323.503 111.824,323.477 111.600,323.266 111.600 C 323.057 111.600,322.776 111.885,322.643 112.233 M344.148 116.400 C 344.148 118.710,344.214 119.655,344.295 118.500 C 344.376 117.345,344.376 115.455,344.295 114.300 C 344.214 113.145,344.148 114.090,344.148 116.400 M343.981 125.400 L 343.800 127.800 338.800 128.000 L 333.800 128.200 333.692 136.500 L 333.584 144.800 328.592 144.800 C 325.531 144.800,323.600 144.955,323.600 145.200 C 323.600 145.799,332.916 145.724,333.520 145.120 C 333.862 144.778,334.000 142.302,334.000 136.520 L 334.000 128.400 338.992 128.400 C 344.663 128.400,344.609 128.437,344.308 124.768 C 344.170 123.087,344.154 123.118,343.981 125.400 M27.267 136.000 C 27.417 136.457,28.363 136.648,31.232 136.800 L 35.000 137.000 35.114 140.896 C 35.251 145.538,34.616 145.164,42.600 145.303 L 48.200 145.400 48.400 149.000 L 48.600 152.600 52.800 152.800 L 57.000 153.000 57.118 156.398 C 57.183 158.267,57.363 159.923,57.518 160.080 C 57.673 160.236,57.710 158.617,57.600 156.482 L 57.400 152.600 53.200 152.400 L 49.000 152.200 48.800 148.600 L 48.600 145.000 42.200 144.800 L 35.800 144.600 35.600 140.600 L 35.400 136.600 31.821 136.483 C 29.786 136.417,27.989 136.158,27.656 135.883 C 27.183 135.493,27.108 135.516,27.267 136.000 M156.314 148.700 L 156.200 152.600 151.715 152.713 L 147.230 152.826 147.115 156.513 L 147.000 160.200 142.600 160.449 C 140.180 160.586,137.705 160.721,137.100 160.749 L 136.000 160.800 136.000 169.800 L 136.000 178.800 131.400 178.800 L 126.800 178.800 126.800 188.400 L 126.800 198.000 131.387 198.000 L 135.975 198.000 136.087 202.700 L 136.200 207.400 141.087 207.512 L 145.974 207.624 146.087 212.112 L 146.200 216.600 151.100 216.712 C 155.845 216.821,156.001 216.853,156.046 217.712 C 156.072 218.201,156.134 218.780,156.185 219.000 C 156.236 219.220,156.306 221.155,156.339 223.300 L 156.400 227.200 168.788 227.200 L 181.175 227.200 181.288 222.300 L 181.400 217.400 187.100 217.289 L 192.800 217.178 192.800 212.189 L 192.800 207.200 181.800 207.200 L 170.800 207.200 170.800 202.824 C 170.800 197.689,170.441 198.065,175.597 197.802 C 180.762 197.538,180.447 197.862,180.136 193.118 C 179.790 187.832,179.556 188.000,187.276 188.000 L 193.200 188.000 193.256 185.300 C 193.287 183.815,193.270 181.918,193.220 181.084 C 193.071 178.620,193.504 178.401,198.549 178.394 C 204.307 178.386,204.054 178.613,203.915 173.567 L 203.800 169.400 198.800 169.200 L 193.800 169.000 193.600 161.000 L 193.400 153.000 187.400 152.800 L 181.400 152.600 181.283 149.220 C 181.116 144.440,182.170 144.800,168.366 144.800 L 156.429 144.800 156.314 148.700 M63.700 160.697 L 66.800 160.834 66.800 174.393 C 66.800 181.851,66.935 188.036,67.100 188.138 C 67.265 188.241,67.350 182.041,67.290 174.362 L 67.180 160.400 63.890 160.480 L 60.600 160.561 63.700 160.697 M318.100 168.699 L 312.800 168.823 312.854 169.912 C 312.902 170.855,312.932 170.880,313.082 170.100 C 313.251 169.225,313.390 169.200,318.204 169.200 C 321.072 169.200,323.257 169.032,323.400 168.800 C 323.536 168.580,323.592 168.439,323.524 168.487 C 323.456 168.535,321.015 168.631,318.100 168.699 M193.200 173.805 L 193.200 178.410 179.100 178.305 L 165.000 178.200 164.885 174.228 C 164.821 172.044,164.861 170.019,164.972 169.728 C 165.135 169.304,167.944 169.200,179.187 169.200 L 193.200 169.200 193.200 173.805 M312.934 174.800 C 312.934 176.450,313.005 177.125,313.091 176.300 C 313.178 175.475,313.178 174.125,313.091 173.300 C 313.005 172.475,312.934 173.150,312.934 174.800 M163.367 178.243 C 163.897 178.446,164.000 179.289,164.000 183.411 L 164.000 188.336 161.333 188.622 C 156.709 189.117,156.620 189.021,156.487 183.423 C 156.402 179.884,156.505 178.580,156.887 178.338 C 157.484 177.959,162.437 177.886,163.367 178.243 M306.800 178.783 L 301.000 179.000 301.000 183.800 L 301.000 188.600 317.200 188.800 L 333.400 189.000 333.513 193.700 L 333.625 198.400 346.593 198.400 C 358.521 198.400,359.593 198.456,359.968 199.100 C 360.330 199.721,360.377 199.726,360.388 199.143 C 360.408 198.062,359.654 198.000,346.567 198.000 L 334.000 198.000 334.000 193.680 C 334.000 187.867,335.640 188.400,317.753 188.400 C 299.295 188.400,301.200 188.957,301.200 183.557 L 301.200 179.200 307.000 179.200 C 310.600 179.200,312.800 179.048,312.800 178.800 C 312.800 178.580,312.755 178.437,312.700 178.483 C 312.645 178.529,309.990 178.664,306.800 178.783 M76.900 188.700 L 85.600 188.816 85.600 193.408 L 85.600 198.000 81.680 198.000 C 79.164 198.000,77.588 198.172,77.280 198.480 C 76.972 198.788,76.800 200.364,76.800 202.880 L 76.800 206.800 72.800 206.800 L 68.800 206.800 68.800 202.643 C 68.800 199.221,68.688 198.443,68.167 198.243 C 67.819 198.109,58.504 198.043,47.467 198.094 L 27.400 198.189 47.800 198.394 L 68.200 198.600 68.313 202.862 C 68.447 207.898,68.189 207.671,73.391 207.330 L 77.174 207.081 77.287 202.841 L 77.400 198.600 81.700 198.486 L 86.000 198.373 86.000 193.386 L 86.000 188.400 77.100 188.492 L 68.200 188.584 76.900 188.700 M146.315 189.139 C 146.693 189.379,146.799 190.568,146.715 193.633 L 146.600 197.800 141.300 197.912 L 136.000 198.023 136.000 193.678 C 136.000 191.289,136.120 189.213,136.267 189.067 C 136.650 188.684,145.700 188.749,146.315 189.139 M179.200 190.047 C 179.200 190.241,178.750 190.400,178.200 190.400 C 177.623 190.400,177.200 190.170,177.200 189.855 C 177.200 189.490,177.529 189.374,178.200 189.502 C 178.750 189.607,179.200 189.852,179.200 190.047 M26.714 202.900 L 26.600 207.000 23.200 207.100 C 17.582 207.266,18.000 206.843,18.000 212.365 C 18.000 217.942,17.672 217.600,23.020 217.600 L 26.775 217.600 26.888 222.500 L 27.000 227.400 37.400 227.410 L 47.800 227.420 37.512 227.303 L 27.225 227.187 27.112 222.293 L 27.000 217.400 22.800 217.200 L 18.600 217.000 18.600 212.400 L 18.600 207.800 22.900 207.686 L 27.200 207.573 27.200 203.186 C 27.200 197.650,26.865 197.453,26.714 202.900 M356.000 207.978 L 351.800 208.200 351.687 212.700 L 351.574 217.200 347.787 217.200 C 345.529 217.200,344.000 217.362,344.000 217.600 C 344.000 218.118,349.616 218.126,350.974 217.610 C 351.990 217.224,352.000 217.176,352.000 212.810 L 352.000 208.400 355.976 208.400 C 358.196 208.400,360.062 208.223,360.200 208.000 C 360.336 207.780,360.392 207.635,360.324 207.678 C 360.256 207.721,358.310 207.856,356.000 207.978 M48.546 231.400 C 48.547 233.600,48.614 234.449,48.695 233.287 C 48.776 232.124,48.776 230.324,48.693 229.287 C 48.611 228.249,48.545 229.200,48.546 231.400 M334.084 231.067 C 333.959 236.522,335.094 236.000,323.346 236.000 L 313.177 236.000 313.288 241.300 L 313.400 246.600 318.510 246.800 C 322.661 246.962,323.491 246.906,322.933 246.500 C 322.485 246.173,320.750 246.000,317.924 246.000 L 313.600 246.000 313.600 241.200 L 313.600 236.400 323.551 236.400 C 335.336 236.400,334.481 236.802,334.299 231.341 L 334.167 227.400 334.084 231.067 M48.661 236.100 C 48.763 236.265,50.803 236.400,53.194 236.400 C 56.734 236.400,57.576 236.513,57.730 237.008 C 57.862 237.434,57.900 237.404,57.855 236.908 C 57.799 236.288,57.215 236.175,53.133 236.000 C 50.570 235.890,48.558 235.935,48.661 236.100 M57.703 246.400 C 57.846 246.923,60.894 247.013,81.533 247.103 L 105.200 247.206 105.200 257.346 L 105.200 267.486 102.741 267.743 C 101.389 267.884,99.319 268.000,98.141 268.000 C 96.964 268.000,96.000 268.140,96.000 268.311 C 96.000 268.619,104.131 268.170,105.107 267.808 C 105.502 267.661,105.590 265.344,105.507 257.310 L 105.400 247.000 81.822 246.897 C 63.593 246.817,58.163 246.681,57.891 246.297 C 57.632 245.932,57.583 245.959,57.703 246.400 M328.600 257.976 L 333.800 258.200 334.000 263.000 L 334.200 267.800 338.900 267.913 L 343.600 268.025 343.600 273.010 L 343.600 277.995 312.000 278.101 L 280.400 278.207 312.100 278.204 L 343.800 278.200 343.800 273.000 L 343.800 267.800 339.112 267.687 L 334.424 267.575 334.312 262.687 L 334.200 257.800 328.800 257.776 L 323.400 257.751 328.600 257.976 M280.165 286.600 C 280.166 290.560,280.226 292.126,280.298 290.080 C 280.371 288.034,280.371 284.794,280.298 282.880 C 280.224 280.966,280.165 282.640,280.165 286.600 M86.229 285.429 C 85.751 285.906,85.600 286.914,85.600 289.621 L 85.600 293.185 76.700 293.300 L 67.800 293.416 76.900 293.508 L 86.000 293.600 86.040 290.500 C 86.108 285.178,85.848 285.436,91.417 285.180 L 96.200 284.961 91.529 284.880 C 87.739 284.815,86.738 284.919,86.229 285.429 M67.067 293.867 C 66.697 294.237,66.729 320.709,67.100 320.938 C 67.265 321.040,67.400 314.931,67.400 307.362 C 67.400 299.793,67.385 293.600,67.367 293.600 C 67.348 293.600,67.213 293.720,67.067 293.867 M156.877 297.400 C 156.761 302.076,156.886 301.946,152.386 302.084 L 148.600 302.200 148.486 306.300 L 148.372 310.400 126.986 310.400 L 105.600 310.400 105.687 315.900 L 105.774 321.400 105.899 316.300 L 106.024 311.200 124.112 311.154 C 151.719 311.085,148.800 311.645,148.800 306.413 L 148.800 302.400 152.551 302.400 C 157.265 302.400,157.271 302.394,157.099 297.540 L 156.966 293.800 156.877 297.400 M170.969 303.200 C 170.969 307.710,171.027 309.555,171.098 307.300 C 171.170 305.045,171.170 301.355,171.098 299.100 C 171.027 296.845,170.969 298.690,170.969 303.200 M289.376 298.600 L 289.400 301.800 294.984 301.912 C 298.810 301.988,300.677 302.177,300.914 302.512 C 301.164 302.863,301.215 302.832,301.098 302.400 C 300.964 301.910,299.902 301.780,295.283 301.689 L 289.632 301.578 289.492 298.489 L 289.352 295.400 289.376 298.600 M220.000 311.026 C 220.000 316.208,219.835 319.962,219.586 320.426 C 219.348 320.871,219.330 321.200,219.543 321.200 C 220.278 321.200,220.400 319.804,220.400 311.379 L 220.400 302.824 225.500 302.699 L 230.600 302.574 225.300 302.487 L 220.000 302.400 220.000 311.026 M301.063 308.300 C 300.715 315.127,300.732 320.801,301.100 320.797 C 301.265 320.795,301.445 316.835,301.500 311.997 C 301.612 302.099,301.450 300.722,301.063 308.300 M230.399 310.900 C 230.400 311.065,232.464 311.200,234.988 311.200 L 239.575 311.200 239.688 316.100 L 239.800 321.000 242.400 321.044 L 245.000 321.087 242.600 320.844 L 240.200 320.600 240.000 315.800 L 239.800 311.000 235.099 310.800 C 232.514 310.690,230.399 310.735,230.399 310.900 M312.880 310.880 C 312.561 311.199,312.400 312.940,312.400 316.068 L 312.400 320.777 307.300 320.906 L 302.200 321.035 307.400 321.017 L 312.600 321.000 312.800 316.000 L 313.000 311.000 317.800 310.780 L 322.600 310.561 317.980 310.480 C 314.823 310.425,313.208 310.552,312.880 310.880 M322.800 321.376 L 322.800 332.000 296.400 332.000 L 270.000 332.000 270.000 326.600 C 270.000 323.630,269.859 321.200,269.686 321.200 C 269.199 321.200,269.090 330.061,269.562 331.300 L 269.980 332.400 296.366 332.400 C 312.362 332.400,322.844 332.252,322.985 332.025 C 323.471 331.237,323.728 311.326,323.255 311.034 C 322.919 310.827,322.800 313.536,322.800 321.376 M245.905 321.083 C 246.402 321.179,247.122 321.175,247.505 321.075 C 247.887 320.975,247.480 320.896,246.600 320.901 C 245.720 320.905,245.407 320.987,245.905 321.083 M86.400 326.623 L 86.400 332.046 81.399 331.923 C 78.649 331.855,76.399 331.940,76.399 332.112 C 76.400 332.284,78.695 332.374,81.500 332.312 L 86.600 332.200 86.800 326.699 C 86.910 323.674,86.865 321.199,86.700 321.199 C 86.535 321.200,86.400 323.640,86.400 326.623 M100.705 321.483 C 101.202 321.579,101.922 321.575,102.305 321.475 C 102.687 321.375,102.280 321.296,101.400 321.301 C 100.520 321.305,100.207 321.387,100.705 321.483 M210.000 333.280 C 209.890 340.035,209.938 345.423,210.106 345.254 C 210.274 345.086,210.364 339.560,210.306 332.974 L 210.199 321.000 210.000 333.280 M170.832 331.820 C 170.750 332.903,171.881 333.200,176.080 333.200 L 180.400 333.200 180.449 335.100 C 180.476 336.145,180.477 340.813,180.452 345.473 C 180.427 350.133,180.573 354.363,180.778 354.873 C 181.021 355.479,181.158 351.913,181.175 344.580 C 181.205 331.291,181.698 332.400,175.753 332.400 C 172.538 332.400,171.209 332.258,171.065 331.900 C 170.954 331.625,170.849 331.589,170.832 331.820 M202.323 350.563 C 202.255 353.292,202.335 355.442,202.500 355.339 C 202.665 355.237,202.800 353.101,202.800 350.593 L 202.800 346.032 206.100 345.898 L 209.400 345.763 205.923 345.681 L 202.446 345.600 202.323 350.563 M186.523 355.899 C 189.341 355.968,193.841 355.968,196.523 355.899 C 199.205 355.830,196.900 355.773,191.400 355.773 C 185.900 355.774,183.705 355.830,186.523 355.899 M368.880 396.900 L 368.961 400.200 369.097 397.100 L 369.234 394.000 372.000 394.000 L 374.766 394.000 374.903 397.100 L 375.039 400.200 375.120 397.110 L 375.200 394.020 381.500 393.899 C 386.552 393.802,385.919 393.761,378.300 393.689 L 368.800 393.600 368.880 396.900 "
      stroke="none" fill="#ecded0" fill-rule="evenodd"></path>
  </g>
</svg>