<?xml version="1.0" encoding="UTF-8"?>
<!DOCTYPE svg PUBLIC "-//W3C//DTD SVG 1.1//EN" "http://www.w3.org/Graphics/SVG/1.1/DTD/svg11.dtd">
<svg xmlns="http://www.w3.org/2000/svg" version="1.1" width="500px" height="500px" style="shape-rendering:geometricPrecision; text-rendering:geometricPrecision; image-rendering:optimizeQuality; fill-rule:evenodd; clip-rule:evenodd" xmlns:xlink="http://www.w3.org/1999/xlink">
<g><path style="opacity:0.008" fill="#fcf4e6" d="M 256.5,55.5 C 255.656,53.2407 253.989,52.2407 251.5,52.5C 250.167,52.5 248.833,52.5 247.5,52.5C 245.784,52.6287 244.117,52.962 242.5,53.5C 246.716,51.9234 251.216,50.5901 256,49.5C 257.707,51.4833 257.874,53.4833 256.5,55.5 Z"/></g>
<g><path style="opacity:0.392" fill="#fdd8b1" d="M 247.5,52.5 C 246.833,53.1667 246.167,53.8333 245.5,54.5C 244.51,60.6446 244.177,66.9779 244.5,73.5C 243.833,73.5 243.167,73.5 242.5,73.5C 242.5,73.1667 242.5,72.8333 242.5,72.5C 242.456,66.0513 242.456,59.718 242.5,53.5C 244.117,52.962 245.784,52.6287 247.5,52.5 Z"/></g>
<g><path style="opacity:0.834" fill="#f0a443" d="M 247.5,52.5 C 248.833,52.5 250.167,52.5 251.5,52.5C 252.209,53.404 253.209,53.7373 254.5,53.5C 254.5,63.8333 254.5,74.1667 254.5,84.5C 258.167,84.5 261.833,84.5 265.5,84.5C 266.833,84.5 267.5,85.1667 267.5,86.5C 266.508,86.3284 265.842,86.6618 265.5,87.5C 264.121,86.3911 262.455,85.7245 260.5,85.5C 258.191,86.0773 256.024,86.0773 254,85.5C 253.5,75.172 253.334,64.8387 253.5,54.5C 250.833,54.5 248.167,54.5 245.5,54.5C 246.167,53.8333 246.833,53.1667 247.5,52.5 Z"/></g>
<g><path style="opacity:0.345" fill="#f8dcad" d="M 251.5,52.5 C 253.989,52.2407 255.656,53.2407 256.5,55.5C 256.5,64.8333 256.5,74.1667 256.5,83.5C 259.448,83.7771 262.281,83.4438 265,82.5C 265.464,83.0944 265.631,83.7611 265.5,84.5C 261.833,84.5 258.167,84.5 254.5,84.5C 254.5,74.1667 254.5,63.8333 254.5,53.5C 253.209,53.7373 252.209,53.404 251.5,52.5 Z"/></g>
<g><path style="opacity:0.2" fill="#f7c07a" d="M 242.5,73.5 C 243.167,73.5 243.833,73.5 244.5,73.5C 240.993,74.9516 237.326,76.2849 233.5,77.5C 233.5,76.1667 233.5,74.8333 233.5,73.5C 236.5,73.5 239.5,73.5 242.5,73.5 Z"/></g>
<g><path style="opacity:0.239" fill="#fde5cd" d="M 350.5,97.5 C 350.5,96.8333 350.5,96.1667 350.5,95.5C 350.824,88.6457 350.491,81.979 349.5,75.5C 346.375,74.5206 343.042,74.1872 339.5,74.5C 339.007,76.8056 338.674,79.139 338.5,81.5C 337.183,78.7699 337.183,75.9365 338.5,73C 342.755,72.2039 346.921,72.3705 351,73.5C 351.823,81.6775 351.656,89.6775 350.5,97.5 Z"/></g>
<g><path style="opacity:0.709" fill="#f6b364" d="M 149.5,73.5 C 151.5,73.5 153.5,73.5 155.5,73.5C 156.833,73.5 158.167,73.5 159.5,73.5C 158.92,77.649 159.586,81.3157 161.5,84.5C 160.791,85.404 159.791,85.7373 158.5,85.5C 158.5,82.1667 158.5,78.8333 158.5,75.5C 155.167,75.5 151.833,75.5 148.5,75.5C 148.328,74.5084 148.662,73.8417 149.5,73.5 Z"/></g>
<g><path style="opacity:1" fill="#f7931f" d="M 245.5,54.5 C 248.167,54.5 250.833,54.5 253.5,54.5C 253.334,64.8387 253.5,75.172 254,85.5C 256.024,86.0773 258.191,86.0773 260.5,85.5C 262.455,85.7245 264.121,86.3911 265.5,87.5C 265.5,97.1667 265.5,106.833 265.5,116.5C 267.948,117.473 270.615,117.806 273.5,117.5C 273.5,120.5 273.5,123.5 273.5,126.5C 257.167,126.5 240.833,126.5 224.5,126.5C 224.5,120.167 224.5,113.833 224.5,107.5C 227.713,107.81 230.713,107.477 233.5,106.5C 233.5,97.1667 233.5,87.8333 233.5,78.5C 233.5,78.1667 233.5,77.8333 233.5,77.5C 237.326,76.2849 240.993,74.9516 244.5,73.5C 244.177,66.9779 244.51,60.6446 245.5,54.5 Z"/></g>
<g><path style="opacity:0.071" fill="#f6eded" d="M 149.5,73.5 C 148.662,73.8417 148.328,74.5084 148.5,75.5C 148.5,75.8333 148.5,76.1667 148.5,76.5C 148.5,90.1667 148.5,103.833 148.5,117.5C 147.174,102.661 147.174,87.6614 148.5,72.5C 149.107,72.6236 149.44,72.9569 149.5,73.5 Z"/></g>
<g><path style="opacity:1" fill="#f79320" d="M 148.5,76.5 C 148.5,76.1667 148.5,75.8333 148.5,75.5C 151.833,75.5 155.167,75.5 158.5,75.5C 158.5,78.8333 158.5,82.1667 158.5,85.5C 159.791,85.7373 160.791,85.404 161.5,84.5C 163.857,84.3367 166.19,84.5034 168.5,85C 169.056,85.3826 169.389,85.8826 169.5,86.5C 169.5,89.8333 169.5,93.1667 169.5,96.5C 172.833,96.5 176.167,96.5 179.5,96.5C 181.242,99.1445 181.909,102.145 181.5,105.5C 183.988,107.388 186.988,108.055 190.5,107.5C 191.477,110.287 191.81,113.287 191.5,116.5C 194.833,116.5 198.167,116.5 201.5,116.5C 201.5,120.833 201.5,125.167 201.5,129.5C 204.833,129.5 208.167,129.5 211.5,129.5C 211.958,132.394 211.291,134.894 209.5,137C 203.175,137.5 196.842,137.666 190.5,137.5C 190.5,140.833 190.5,144.167 190.5,147.5C 187.102,147.18 183.768,147.513 180.5,148.5C 179.583,151.758 179.249,155.091 179.5,158.5C 177.712,158.785 176.045,158.452 174.5,157.5C 175.59,156.391 175.59,155.391 174.5,154.5C 173.667,155.5 172.833,156.5 172,157.5C 171.667,154.833 171.333,152.167 171,149.5C 170.581,148.328 169.915,147.328 169,146.5C 168.167,107.839 167.667,107.839 167.5,146.5C 166.5,146.5 165.5,146.5 164.5,146.5C 164.666,136.828 164.5,127.161 164,117.5C 163.667,117.167 163.333,116.833 163,116.5C 162.165,156.483 160.998,156.483 159.5,116.5C 156.242,115.583 152.909,115.249 149.5,115.5C 149.829,102.323 149.495,89.3226 148.5,76.5 Z"/></g>
<g><path style="opacity:0.008" fill="#fefaf1" d="M 242.5,72.5 C 242.5,72.8333 242.5,73.1667 242.5,73.5C 239.5,73.5 236.5,73.5 233.5,73.5C 233.5,74.8333 233.5,76.1667 233.5,77.5C 233.5,77.8333 233.5,78.1667 233.5,78.5C 232.507,87.3178 232.173,96.3178 232.5,105.5C 229.102,105.18 225.768,105.513 222.5,106.5C 221.691,108.071 221.357,109.738 221.5,111.5C 220.694,110.003 220.028,108.336 219.5,106.5C 219.833,106.167 220.167,105.833 220.5,105.5C 224.094,104.574 227.76,104.241 231.5,104.5C 231.768,94.9704 231.435,85.4704 230.5,76C 230.755,74.6739 231.422,73.6739 232.5,73C 235.817,72.5017 239.15,72.335 242.5,72.5 Z"/></g>
<g><path style="opacity:0.004" fill="#fefffe" d="M 335.5,79.5 C 336.833,80.1667 336.833,80.1667 335.5,79.5 Z"/></g>
<g><path style="opacity:0.007" fill="#fefffe" d="M 173.5,82.5 C 175.973,82.9473 176.14,83.9473 174,85.5C 173.517,84.552 173.351,83.552 173.5,82.5 Z"/></g>
<g><path style="opacity:0.255" fill="#fce9c9" d="M 208.5,126.5 C 206.865,127.815 205.199,127.815 203.5,126.5C 202.833,123.023 202.166,119.689 201.5,116.5C 198.167,116.5 194.833,116.5 191.5,116.5C 191.81,113.287 191.477,110.287 190.5,107.5C 187.877,105.735 184.877,105.068 181.5,105.5C 181.909,102.145 181.242,99.1445 179.5,96.5C 176.713,95.5233 173.713,95.19 170.5,95.5C 170.81,92.2869 170.477,89.2869 169.5,86.5C 169.389,85.8826 169.056,85.3826 168.5,85C 166.19,84.5034 163.857,84.3367 161.5,84.5C 159.586,81.3157 158.92,77.649 159.5,73.5C 158.167,73.5 156.833,73.5 155.5,73.5C 156.751,71.439 158.418,71.1057 160.5,72.5C 162.518,75.2087 162.518,77.7087 160.5,80C 160.735,80.8732 161.069,81.7065 161.5,82.5C 164.751,83.2196 167.917,83.5529 171,83.5C 172.118,86.9748 172.285,90.6415 171.5,94.5C 173.167,94.5 174.833,94.5 176.5,94.5C 176.275,92.2841 177.108,90.6174 179,89.5C 179.492,90.549 179.326,91.549 178.5,92.5C 179.328,93.4147 180.328,94.0814 181.5,94.5C 182.487,97.7683 182.82,101.102 182.5,104.5C 185.792,103.606 189.126,103.773 192.5,105C 192.415,108.409 192.748,111.909 193.5,115.5C 196.652,115.288 199.985,115.288 203.5,115.5C 203.18,118.898 203.513,122.232 204.5,125.5C 205.905,125.76 207.238,126.093 208.5,126.5 Z"/></g>
<g><path style="opacity:0.009" fill="#feffda" d="M 173.5,87.5 C 175.337,87.6395 175.67,88.3061 174.5,89.5C 173.702,89.0431 173.369,88.3764 173.5,87.5 Z"/></g>
<g><path style="opacity:0.546" fill="#f1b25d" d="M 349.5,75.5 C 346.5,75.5 343.5,75.5 340.5,75.5C 340.82,78.8984 340.487,82.2317 339.5,85.5C 336.242,86.4173 332.909,86.7507 329.5,86.5C 329.5,89.8333 329.5,93.1667 329.5,96.5C 326.167,96.5 322.833,96.5 319.5,96.5C 322.287,95.5233 325.287,95.19 328.5,95.5C 328.335,92.1501 328.502,88.8168 329,85.5C 332.27,84.868 335.437,84.2014 338.5,83.5C 338.5,82.8333 338.5,82.1667 338.5,81.5C 338.674,79.139 339.007,76.8056 339.5,74.5C 343.042,74.1872 346.375,74.5206 349.5,75.5 Z"/></g>
<g><path style="opacity:0.161" fill="#fdecce" d="M 338.5,83.5 C 335.437,84.2014 332.27,84.868 329,85.5C 328.502,88.8168 328.335,92.1501 328.5,95.5C 325.287,95.19 322.287,95.5233 319.5,96.5C 318.883,96.6107 318.383,96.944 318,97.5C 317.505,99.4727 317.338,101.473 317.5,103.5C 316.523,100.713 316.19,97.7131 316.5,94.5C 320.167,94.5 323.833,94.5 327.5,94.5C 327.449,90.0733 326.449,85.9066 324.5,82C 329.039,82.9338 333.706,83.4338 338.5,83.5 Z"/></g>
<g><path style="opacity:0.514" fill="#f5b76b" d="M 169.5,86.5 C 170.477,89.2869 170.81,92.2869 170.5,95.5C 173.713,95.19 176.713,95.5233 179.5,96.5C 176.167,96.5 172.833,96.5 169.5,96.5C 169.5,93.1667 169.5,89.8333 169.5,86.5 Z"/></g>
<g><path style="opacity:1" fill="#f7931f" d="M 349.5,75.5 C 350.491,81.979 350.824,88.6457 350.5,95.5C 349.833,95.5 349.167,95.5 348.5,95.5C 345.375,94.5206 342.042,94.1872 338.5,94.5C 338.5,115.5 338.5,136.5 338.5,157.5C 335.833,157.5 333.167,157.5 330.5,157.5C 330.099,154.252 329.432,151.085 328.5,148C 321.842,147.5 315.175,147.334 308.5,147.5C 308.81,144.287 308.477,141.287 307.5,138.5C 301.021,137.509 294.354,137.176 287.5,137.5C 287.5,134.5 287.5,131.5 287.5,128.5C 290.833,128.5 294.167,128.5 297.5,128.5C 297.5,124.5 297.5,120.5 297.5,116.5C 300.5,116.5 303.5,116.5 306.5,116.5C 308.388,114.012 309.055,111.012 308.5,107.5C 311.5,107.5 314.5,107.5 317.5,107.5C 317.5,106.5 317.5,105.5 317.5,104.5C 317.5,104.167 317.5,103.833 317.5,103.5C 317.338,101.473 317.505,99.4727 318,97.5C 318.383,96.944 318.883,96.6107 319.5,96.5C 322.833,96.5 326.167,96.5 329.5,96.5C 329.5,93.1667 329.5,89.8333 329.5,86.5C 332.909,86.7507 336.242,86.4173 339.5,85.5C 340.487,82.2317 340.82,78.8984 340.5,75.5C 343.5,75.5 346.5,75.5 349.5,75.5 Z"/></g>
<g><path style="opacity:0.745" fill="#f1b45f" d="M 181.5,105.5 C 184.877,105.068 187.877,105.735 190.5,107.5C 186.988,108.055 183.988,107.388 181.5,105.5 Z"/></g>
<g><path style="opacity:0.233" fill="#f6cb85" d="M 317.5,104.5 C 317.5,105.5 317.5,106.5 317.5,107.5C 314.5,107.5 311.5,107.5 308.5,107.5C 309.055,111.012 308.388,114.012 306.5,116.5C 306.5,116.167 306.5,115.833 306.5,115.5C 306.74,112.421 306.407,109.421 305.5,106.5C 306.025,105.808 306.692,105.308 307.5,105C 310.936,104.982 314.269,104.815 317.5,104.5 Z"/></g>
<g><path style="opacity:0.3" fill="#f4c99b" d="M 348.5,95.5 C 349.167,95.5 349.833,95.5 350.5,95.5C 350.5,96.1667 350.5,96.8333 350.5,97.5C 350.158,98.3382 349.492,98.6716 348.5,98.5C 347.666,97.2521 346.333,96.5854 344.5,96.5C 342.667,96.5854 341.334,97.2521 340.5,98.5C 340.5,117.5 340.5,136.5 340.5,155.5C 340.737,156.791 340.404,157.791 339.5,158.5C 339.5,137.5 339.5,116.5 339.5,95.5C 342.5,95.5 345.5,95.5 348.5,95.5 Z"/></g>
<g><path style="opacity:0.013" fill="#fbfaf3" d="M 348.5,98.5 C 345.942,97.941 343.276,97.941 340.5,98.5C 341.334,97.2521 342.667,96.5854 344.5,96.5C 346.333,96.5854 347.666,97.2521 348.5,98.5 Z"/></g>
<g><path style="opacity:0.038" fill="#ffe8da" d="M 267.5,86.5 C 267.5,96.1667 267.5,105.833 267.5,115.5C 271.042,115.187 274.375,115.521 277.5,116.5C 276.833,116.5 276.167,116.5 275.5,116.5C 272.167,116.5 268.833,116.5 265.5,116.5C 265.5,106.833 265.5,97.1667 265.5,87.5C 265.842,86.6618 266.508,86.3284 267.5,86.5 Z"/></g>
<g><path style="opacity:0.015" fill="#fefffe" d="M 148.5,117.5 C 151.833,117.5 155.167,117.5 158.5,117.5C 158.5,118.167 158.5,118.833 158.5,119.5C 155.059,118.903 151.725,118.237 148.5,117.5 Z"/></g>
<g><path style="opacity:0.047" fill="#fcc982" d="M 233.5,78.5 C 233.5,87.8333 233.5,97.1667 233.5,106.5C 230.167,106.5 226.833,106.5 223.5,106.5C 223.5,113.5 223.5,120.5 223.5,127.5C 221.787,126.365 221.12,124.698 221.5,122.5C 221.5,118.833 221.5,115.167 221.5,111.5C 221.357,109.738 221.691,108.071 222.5,106.5C 225.768,105.513 229.102,105.18 232.5,105.5C 232.173,96.3178 232.507,87.3178 233.5,78.5 Z"/></g>
<g><path style="opacity:0.055" fill="#ffefea" d="M 306.5,115.5 C 306.5,115.833 306.5,116.167 306.5,116.5C 303.5,116.5 300.5,116.5 297.5,116.5C 296.833,119.833 296.167,123.167 295.5,126.5C 295.5,122.833 295.5,119.167 295.5,115.5C 299.167,115.5 302.833,115.5 306.5,115.5 Z"/></g>
<g><path style="opacity:0.318" fill="#fcc79a" d="M 158.5,117.5 C 159.833,127.167 159.833,136.833 158.5,146.5C 158.3,137.399 158.3,128.399 158.5,119.5C 158.5,118.833 158.5,118.167 158.5,117.5 Z"/></g>
<g><path style="opacity:0.839" fill="#f7a03e" d="M 233.5,106.5 C 230.713,107.477 227.713,107.81 224.5,107.5C 224.5,113.833 224.5,120.167 224.5,126.5C 240.833,126.5 257.167,126.5 273.5,126.5C 273.5,123.5 273.5,120.5 273.5,117.5C 270.615,117.806 267.948,117.473 265.5,116.5C 268.833,116.5 272.167,116.5 275.5,116.5C 275.789,120.106 275.456,123.606 274.5,127C 257.503,127.5 240.503,127.667 223.5,127.5C 223.5,120.5 223.5,113.5 223.5,106.5C 226.833,106.5 230.167,106.5 233.5,106.5 Z"/></g>
<g><path style="opacity:1" fill="#f49a2e" d="M 148.5,76.5 C 149.495,89.3226 149.829,102.323 149.5,115.5C 152.909,115.249 156.242,115.583 159.5,116.5C 160.998,156.483 162.165,156.483 163,116.5C 163.333,116.833 163.667,117.167 164,117.5C 164.5,127.161 164.666,136.828 164.5,146.5C 165.5,146.5 166.5,146.5 167.5,146.5C 167.667,107.839 168.167,107.839 169,146.5C 169.915,147.328 170.581,148.328 171,149.5C 171.333,152.167 171.667,154.833 172,157.5C 172.833,156.5 173.667,155.5 174.5,154.5C 175.59,155.391 175.59,156.391 174.5,157.5C 176.045,158.452 177.712,158.785 179.5,158.5C 176.269,159.782 172.936,159.782 169.5,158.5C 169.5,155.5 169.5,152.5 169.5,149.5C 166.167,149.5 162.833,149.5 159.5,149.5C 158.596,148.791 158.263,147.791 158.5,146.5C 159.833,136.833 159.833,127.167 158.5,117.5C 155.167,117.5 151.833,117.5 148.5,117.5C 148.5,103.833 148.5,90.1667 148.5,76.5 Z"/></g>
<g><path style="opacity:0.454" fill="#ffca94" d="M 275.5,116.5 C 276.167,116.5 276.833,116.5 277.5,116.5C 277.797,120.767 277.464,124.934 276.5,129C 260.818,129.716 245.151,129.55 229.5,128.5C 227.265,128.795 225.265,128.461 223.5,127.5C 240.503,127.667 257.503,127.5 274.5,127C 275.456,123.606 275.789,120.106 275.5,116.5 Z"/></g>
<g><path style="opacity:0.102" fill="#fcf8e6" d="M 221.5,122.5 C 221.12,124.698 221.787,126.365 223.5,127.5C 225.265,128.461 227.265,128.795 229.5,128.5C 226.269,129.782 222.936,129.782 219.5,128.5C 220.048,126.374 220.715,124.374 221.5,122.5 Z"/></g>
<g><path style="opacity:0.023" fill="#fcfff3" d="M 219.5,128.5 C 218.905,131.113 218.071,131.113 217,128.5C 216.25,129.126 215.416,129.626 214.5,130C 218.439,132.319 218.439,134.486 214.5,136.5C 214.167,136.5 213.833,136.5 213.5,136.5C 213.5,133.5 213.5,130.5 213.5,127.5C 215.831,126.005 217.831,126.338 219.5,128.5 Z"/></g>
<g><path style="opacity:0.902" fill="#f7ae58" d="M 297.5,116.5 C 297.5,120.5 297.5,124.5 297.5,128.5C 294.167,128.5 290.833,128.5 287.5,128.5C 287.5,131.5 287.5,134.5 287.5,137.5C 294.354,137.176 301.021,137.509 307.5,138.5C 300.167,138.5 292.833,138.5 285.5,138.5C 285.5,134.5 285.5,130.5 285.5,126.5C 288.833,126.5 292.167,126.5 295.5,126.5C 296.167,123.167 296.833,119.833 297.5,116.5 Z"/></g>
<g><path style="opacity:0.596" fill="#f4ab52" d="M 201.5,116.5 C 202.166,119.689 202.833,123.023 203.5,126.5C 205.199,127.815 206.865,127.815 208.5,126.5C 210.415,126.216 212.081,126.549 213.5,127.5C 213.5,130.5 213.5,133.5 213.5,136.5C 212.711,136.783 212.044,137.283 211.5,138C 204.842,138.5 198.175,138.666 191.5,138.5C 191.81,141.713 191.477,144.713 190.5,147.5C 190.5,144.167 190.5,140.833 190.5,137.5C 196.842,137.666 203.175,137.5 209.5,137C 211.291,134.894 211.958,132.394 211.5,129.5C 208.167,129.5 204.833,129.5 201.5,129.5C 201.5,125.167 201.5,120.833 201.5,116.5 Z"/></g>
<g><path style="opacity:0.004" fill="#fefffe" d="M 196.5,140.5 C 198.973,140.947 199.14,141.947 197,143.5C 196.517,142.552 196.351,141.552 196.5,140.5 Z"/></g>
<g><path style="opacity:0.004" fill="#fefffe" d="M 207.5,140.5 C 207.103,141.525 206.437,141.692 205.5,141C 206.094,140.536 206.761,140.369 207.5,140.5 Z"/></g>
<g><path style="opacity:0.004" fill="#fefffe" d="M 296.5,140.5 C 297.833,141.167 297.833,141.167 296.5,140.5 Z"/></g>
<g><path style="opacity:0.259" fill="#f8e0bb" d="M 285.5,138.5 C 292.833,138.5 300.167,138.5 307.5,138.5C 307.5,142.167 307.5,145.833 307.5,149.5C 307.167,149.5 306.833,149.5 306.5,149.5C 305.966,146.467 305.633,143.3 305.5,140C 302.304,139.195 299.304,139.362 296.5,140.5C 293.853,139.176 291.186,139.176 288.5,140.5C 286.962,140.547 285.962,139.88 285.5,138.5 Z"/></g>
<g><path style="opacity:0.006" fill="#fefffe" d="M 219.5,148.5 C 217.663,148.361 217.33,147.694 218.5,146.5C 219.298,146.957 219.631,147.624 219.5,148.5 Z"/></g>
<g><path style="opacity:0.006" fill="#fefffe" d="M 387.5,147.5 C 388.386,146.224 389.386,146.224 390.5,147.5C 389.575,148.562 388.575,148.562 387.5,147.5 Z"/></g>
<g><path style="opacity:0.007" fill="#fefffe" d="M 428.5,146.5 C 430.765,147.94 430.932,149.607 429,151.5C 428.506,149.866 428.34,148.199 428.5,146.5 Z"/></g>
<g><path style="opacity:0.106" fill="#f9f4e2" d="M 120.5,158.5 C 119.5,158.5 118.5,158.5 117.5,158.5C 117.5,155.167 117.5,151.833 117.5,148.5C 102.833,148.5 88.1667,148.5 73.5,148.5C 74.4376,145.955 75.7709,145.455 77.5,147C 82.8333,147.167 88.1667,147.333 93.5,147.5C 99.9509,147.097 106.284,147.097 112.5,147.5C 113.833,146.833 115.167,146.167 116.5,145.5C 117.736,146.246 119.07,146.579 120.5,146.5C 120.002,149.01 119.336,151.51 118.5,154C 118.759,155.787 119.425,157.287 120.5,158.5 Z"/></g>
<g><path style="opacity:0.07" fill="#f9f4e7" d="M 292.5,158.5 C 290.5,158.5 288.5,158.5 286.5,158.5C 286.5,155.5 286.5,152.5 286.5,149.5C 265.673,148.503 244.673,148.169 223.5,148.5C 222.521,151.625 222.187,154.958 222.5,158.5C 220.833,158.5 219.167,158.5 217.5,158.5C 218.209,157.596 219.209,157.263 220.5,157.5C 220.374,155.8 219.707,154.3 218.5,153C 218.905,152.055 219.572,151.388 220.5,151C 219.748,150.329 219.414,149.496 219.5,148.5C 241.451,147.823 263.451,147.156 285.5,146.5C 286.442,146.608 287.275,146.941 288,147.5C 289.043,150.757 289.543,154.09 289.5,157.5C 290.791,157.263 291.791,157.596 292.5,158.5 Z"/></g>
<g><path style="opacity:0.963" fill="#f4a445" d="M 348.5,95.5 C 345.5,95.5 342.5,95.5 339.5,95.5C 339.5,116.5 339.5,137.5 339.5,158.5C 336.36,159.641 333.027,159.808 329.5,159C 328.549,155.943 328.216,152.777 328.5,149.5C 323.5,149.5 318.5,149.5 313.5,149.5C 311.5,149.5 309.5,149.5 307.5,149.5C 307.5,145.833 307.5,142.167 307.5,138.5C 308.477,141.287 308.81,144.287 308.5,147.5C 315.175,147.334 321.842,147.5 328.5,148C 329.432,151.085 330.099,154.252 330.5,157.5C 333.167,157.5 335.833,157.5 338.5,157.5C 338.5,136.5 338.5,115.5 338.5,94.5C 342.042,94.1872 345.375,94.5206 348.5,95.5 Z"/></g>
<g><path style="opacity:0.073" fill="#f8f4e3" d="M 425.5,148.5 C 424.833,148.5 424.167,148.5 423.5,148.5C 412.986,148.172 402.653,148.506 392.5,149.5C 392.167,149.5 391.833,149.5 391.5,149.5C 391.787,147.879 392.787,146.879 394.5,146.5C 403.452,147.639 412.452,147.805 421.5,147C 423.794,144.784 425.128,145.284 425.5,148.5 Z"/></g>
<g><path style="opacity:0.528" fill="#f3a64a" d="M 73.5,148.5 C 88.1667,148.5 102.833,148.5 117.5,148.5C 117.5,151.833 117.5,155.167 117.5,158.5C 117.5,158.833 117.5,159.167 117.5,159.5C 116.799,156.437 116.132,153.27 115.5,150C 102.141,149.242 88.8075,149.408 75.5,150.5C 75.5,153.167 75.5,155.833 75.5,158.5C 73.8372,156.562 73.1706,154.228 73.5,151.5C 73.5,150.5 73.5,149.5 73.5,148.5 Z"/></g>
<g><path style="opacity:0.032" fill="#fcfeec" d="M 159.5,149.5 C 162.833,149.5 166.167,149.5 169.5,149.5C 169.5,152.5 169.5,155.5 169.5,158.5C 169.5,159.167 169.5,159.833 169.5,160.5C 168.834,157.311 168.167,153.977 167.5,150.5C 167.891,151.718 167.224,152.552 165.5,153C 163.19,153.497 160.857,153.663 158.5,153.5C 158.433,152.041 158.766,150.708 159.5,149.5 Z"/></g>
<g><path style="opacity:0.108" fill="#fdedd4" d="M 213.5,136.5 C 213.833,136.5 214.167,136.5 214.5,136.5C 215.774,137.189 215.774,138.023 214.5,139C 212.26,139.977 209.927,140.477 207.5,140.5C 203.354,139.353 199.02,139.186 194.5,140C 192.078,141.888 192.078,143.888 194.5,146C 193.816,149.922 191.482,151.422 187.5,150.5C 187.5,151.5 187.5,152.5 187.5,153.5C 191.5,154.167 191.5,154.833 187.5,155.5C 187.785,157.288 187.452,158.955 186.5,160.5C 184.819,157.208 184.486,153.874 185.5,150.5C 184.5,150.5 183.5,150.5 182.5,150.5C 182.81,153.713 182.477,156.713 181.5,159.5C 181.5,158.833 181.5,158.167 181.5,157.5C 181.5,154.833 181.5,152.167 181.5,149.5C 185.012,150.055 188.012,149.388 190.5,147.5C 191.477,144.713 191.81,141.713 191.5,138.5C 198.175,138.666 204.842,138.5 211.5,138C 212.044,137.283 212.711,136.783 213.5,136.5 Z"/></g>
<g><path style="opacity:0.011" fill="#fffbf4" d="M 306.5,149.5 C 306.833,149.5 307.167,149.5 307.5,149.5C 309.5,149.5 311.5,149.5 313.5,149.5C 313.5,149.833 313.5,150.167 313.5,150.5C 306.943,151.317 306.943,152.65 313.5,154.5C 310.966,155.777 308.466,155.777 306,154.5C 305.36,152.735 305.527,151.068 306.5,149.5 Z"/></g>
<g><path style="opacity:0.004" fill="#fefffe" d="M 190.5,152.5 C 191.251,151.427 192.251,151.26 193.5,152C 192.552,152.483 191.552,152.649 190.5,152.5 Z"/></g>
<g><path style="opacity:0.325" fill="#efad50" d="M 190.5,147.5 C 188.012,149.388 185.012,150.055 181.5,149.5C 181.5,152.167 181.5,154.833 181.5,157.5C 180.833,157.833 180.167,158.167 179.5,158.5C 179.249,155.091 179.583,151.758 180.5,148.5C 183.768,147.513 187.102,147.18 190.5,147.5 Z"/></g>
<g><path style="opacity:0.718" fill="#f8be7b" d="M 423.5,148.5 C 424.167,148.5 424.833,148.5 425.5,148.5C 426.069,152.329 425.402,155.663 423.5,158.5C 423.5,155.167 423.5,151.833 423.5,148.5 Z"/></g>
<g><path style="opacity:0.024" fill="#fffeed" d="M 390.5,155.5 C 389.833,155.5 389.5,155.833 389.5,156.5C 387.028,155.251 386.861,153.585 389,151.5C 389.41,152.901 389.91,154.234 390.5,155.5 Z"/></g>
<g><path style="opacity:1" fill="#f79320" d="M 117.5,159.5 C 128.167,159.5 138.833,159.5 149.5,159.5C 150.254,162.256 150.254,164.922 149.5,167.5C 149.5,168.5 149.5,169.5 149.5,170.5C 152.5,170.5 155.5,170.5 158.5,170.5C 158.5,173.5 158.5,176.5 158.5,179.5C 155.5,179.5 152.5,179.5 149.5,179.5C 149.5,180.833 149.5,182.167 149.5,183.5C 149.5,183.833 149.5,184.167 149.5,184.5C 149.5,186.5 149.5,188.5 149.5,190.5C 145.629,190.185 141.962,190.518 138.5,191.5C 137.509,197.979 137.176,204.646 137.5,211.5C 131.5,211.5 125.5,211.5 119.5,211.5C 119.167,211.5 118.833,211.5 118.5,211.5C 117.462,204.814 117.295,198.147 118,191.5C 115.113,189.161 111.946,188.828 108.5,190.5C 107.764,187.305 107.097,183.971 106.5,180.5C 103.232,179.513 99.8984,179.18 96.5,179.5C 96.81,176.287 96.4767,173.287 95.5,170.5C 93.0122,168.612 90.0122,167.945 86.5,168.5C 86.7839,165.223 86.4505,162.057 85.5,159C 82.1832,158.502 78.8499,158.335 75.5,158.5C 75.5,155.833 75.5,153.167 75.5,150.5C 88.8075,149.408 102.141,149.242 115.5,150C 116.132,153.27 116.799,156.437 117.5,159.5 Z"/></g>
<g><path style="opacity:1" fill="#f7931f" d="M 286.5,149.5 C 286.5,152.5 286.5,155.5 286.5,158.5C 286.5,158.833 286.5,159.167 286.5,159.5C 292.979,160.491 299.646,160.824 306.5,160.5C 306.19,163.713 306.523,166.713 307.5,169.5C 307.218,173.296 307.218,176.963 307.5,180.5C 310.443,181.244 313.443,181.744 316.5,182C 317.13,185.129 317.796,188.296 318.5,191.5C 321.758,192.417 325.091,192.751 328.5,192.5C 328.5,193.5 328.5,194.5 328.5,195.5C 327.502,225.329 327.169,255.329 327.5,285.5C 324.482,285.335 321.482,285.502 318.5,286C 317.549,289.057 317.216,292.223 317.5,295.5C 314.091,295.249 310.758,295.583 307.5,296.5C 306.516,299.428 306.183,302.428 306.5,305.5C 306.389,306.117 306.056,306.617 305.5,307C 302.456,307.363 299.456,307.863 296.5,308.5C 295.527,310.948 295.194,313.615 295.5,316.5C 292.167,316.5 288.833,316.5 285.5,316.5C 285.5,320.167 285.5,323.833 285.5,327.5C 254.5,327.5 223.5,327.5 192.5,327.5C 192.789,323.894 192.456,320.394 191.5,317C 187.999,316.904 184.666,317.404 181.5,318.5C 181.167,318.5 180.833,318.5 180.5,318.5C 177.713,317.523 174.713,317.19 171.5,317.5C 171.5,313.833 171.5,310.167 171.5,306.5C 168.167,306.5 164.833,306.5 161.5,306.5C 160.909,296.69 160.242,287.023 159.5,277.5C 156.316,275.586 152.649,274.92 148.5,275.5C 148.5,258.167 148.5,240.833 148.5,223.5C 152.649,224.08 156.316,223.414 159.5,221.5C 160.242,211.977 160.909,202.31 161.5,192.5C 164.448,192.777 167.281,192.444 170,191.5C 170.499,187.848 170.665,184.182 170.5,180.5C 173.833,180.5 177.167,180.5 180.5,180.5C 181.477,177.713 181.81,174.713 181.5,171.5C 185.167,171.5 188.833,171.5 192.5,171.5C 192.5,167.833 192.5,164.167 192.5,160.5C 203.167,160.5 213.833,160.5 224.5,160.5C 224.5,156.833 224.5,153.167 224.5,149.5C 245.167,149.5 265.833,149.5 286.5,149.5 Z"/></g>
<g><path style="opacity:0.227" fill="#fdebc7" d="M 313.5,150.5 C 313.5,150.167 313.5,149.833 313.5,149.5C 318.5,149.5 323.5,149.5 328.5,149.5C 328.216,152.777 328.549,155.943 329.5,159C 333.027,159.808 336.36,159.641 339.5,158.5C 340.404,157.791 340.737,156.791 340.5,155.5C 342.863,157.083 342.863,158.916 340.5,161C 336.5,161.667 332.5,161.667 328.5,161C 327.643,160.311 326.977,159.478 326.5,158.5C 326.6,156.007 326.933,153.507 327.5,151C 322.845,150.501 318.179,150.334 313.5,150.5 Z"/></g>
<g><path style="opacity:0.033" fill="#fff6ef" d="M 390.5,155.5 C 390.833,155.5 391.167,155.5 391.5,155.5C 391.5,156.5 391.5,157.5 391.5,158.5C 389.5,158.5 387.5,158.5 385.5,158.5C 386.833,157.833 388.167,157.167 389.5,156.5C 390.167,156.5 390.5,156.167 390.5,155.5 Z"/></g>
<g><path style="opacity:0.325" fill="#f6d8ab" d="M 149.5,159.5 C 138.833,159.5 128.167,159.5 117.5,159.5C 117.5,159.167 117.5,158.833 117.5,158.5C 118.5,158.5 119.5,158.5 120.5,158.5C 128.353,158.629 136.186,158.295 144,157.5C 146.295,157.547 148.129,158.213 149.5,159.5 Z"/></g>
<g><path style="opacity:0.322" fill="#f6cc94" d="M 223.5,148.5 C 223.5,152.167 223.5,155.833 223.5,159.5C 212.833,159.5 202.167,159.5 191.5,159.5C 191.5,163.167 191.5,166.833 191.5,170.5C 188.941,170.802 186.607,170.468 184.5,169.5C 186.5,169.5 188.5,169.5 190.5,169.5C 190.5,166.167 190.5,162.833 190.5,159.5C 191.334,158.252 192.667,157.585 194.5,157.5C 202.142,158.358 209.809,158.692 217.5,158.5C 219.167,158.5 220.833,158.5 222.5,158.5C 222.187,154.958 222.521,151.625 223.5,148.5 Z"/></g>
<g><path style="opacity:0.318" fill="#f8d199" d="M 308.5,158.5 C 308.5,162.167 308.5,165.833 308.5,169.5C 308.167,169.5 307.833,169.5 307.5,169.5C 307.5,166.167 307.5,162.833 307.5,159.5C 300.5,159.5 293.5,159.5 286.5,159.5C 286.5,159.167 286.5,158.833 286.5,158.5C 288.5,158.5 290.5,158.5 292.5,158.5C 297.937,158.449 303.271,158.449 308.5,158.5 Z"/></g>
<g><path style="opacity:0.328" fill="#f5cf97" d="M 391.5,149.5 C 391.833,149.5 392.167,149.5 392.5,149.5C 392.5,152.833 392.5,156.167 392.5,159.5C 379.5,159.5 366.5,159.5 353.5,159.5C 353.842,158.662 354.508,158.328 355.5,158.5C 365.5,158.5 375.5,158.5 385.5,158.5C 387.5,158.5 389.5,158.5 391.5,158.5C 391.5,157.5 391.5,156.5 391.5,155.5C 391.5,153.5 391.5,151.5 391.5,149.5 Z"/></g>
<g><path style="opacity:0.373" fill="#fad5aa" d="M 181.5,157.5 C 181.5,158.167 181.5,158.833 181.5,159.5C 181.03,160.693 180.03,161.36 178.5,161.5C 175.543,161.302 172.543,160.968 169.5,160.5C 169.5,159.833 169.5,159.167 169.5,158.5C 172.936,159.782 176.269,159.782 179.5,158.5C 180.167,158.167 180.833,157.833 181.5,157.5 Z"/></g>
<g><path style="opacity:0.729" fill="#f5a941" d="M 286.5,159.5 C 293.5,159.5 300.5,159.5 307.5,159.5C 307.5,162.833 307.5,166.167 307.5,169.5C 306.523,166.713 306.19,163.713 306.5,160.5C 299.646,160.824 292.979,160.491 286.5,159.5 Z"/></g>
<g><path style="opacity:0.735" fill="#f4a743" d="M 353.5,159.5 C 366.5,159.5 379.5,159.5 392.5,159.5C 379.34,160.331 366.006,160.831 352.5,161C 351.833,164.333 351.167,167.667 350.5,171C 347.183,171.498 343.85,171.665 340.5,171.5C 343.5,170.833 346.5,170.167 349.5,169.5C 349.5,166.167 349.5,162.833 349.5,159.5C 350.833,159.5 352.167,159.5 353.5,159.5 Z"/></g>
<g><path style="opacity:0.32" fill="#fdc382" d="M 423.5,159.5 C 423.5,160.167 423.167,160.5 422.5,160.5C 419.721,160.279 417.054,160.612 414.5,161.5C 416.988,159.612 419.988,158.945 423.5,159.5 Z"/></g>
<g><path style="opacity:0.024" fill="#fef0db" d="M 425.5,148.5 C 426.645,152.311 426.812,156.311 426,160.5C 424.651,163.07 423.484,163.07 422.5,160.5C 423.167,160.5 423.5,160.167 423.5,159.5C 423.5,159.167 423.5,158.833 423.5,158.5C 425.402,155.663 426.069,152.329 425.5,148.5 Z"/></g>
<g><path style="opacity:0.071" fill="#fcf4dd" d="M 73.5,151.5 C 73.1706,154.228 73.8372,156.562 75.5,158.5C 77.9878,160.388 80.9878,161.055 84.5,160.5C 84.5,163.167 84.5,165.833 84.5,168.5C 84.5,169.5 84.5,170.5 84.5,171.5C 83.5206,168.375 83.1872,165.042 83.5,161.5C 80.1501,161.665 76.8168,161.498 73.5,161C 72.1816,157.731 72.1816,154.565 73.5,151.5 Z"/></g>
<g><path style="opacity:0.007" fill="#fefffe" d="M 325.5,160.5 C 328.428,161.637 328.762,162.97 326.5,164.5C 325.571,163.311 325.238,161.978 325.5,160.5 Z"/></g>
<g><path style="opacity:0.837" fill="#f4a242" d="M 223.5,148.5 C 244.673,148.169 265.673,148.503 286.5,149.5C 265.833,149.5 245.167,149.5 224.5,149.5C 224.5,153.167 224.5,156.833 224.5,160.5C 213.833,160.5 203.167,160.5 192.5,160.5C 192.5,164.167 192.5,167.833 192.5,171.5C 188.833,171.5 185.167,171.5 181.5,171.5C 181.81,174.713 181.477,177.713 180.5,180.5C 180.5,176.833 180.5,173.167 180.5,169.5C 181.833,169.5 183.167,169.5 184.5,169.5C 186.607,170.468 188.941,170.802 191.5,170.5C 191.5,166.833 191.5,163.167 191.5,159.5C 202.167,159.5 212.833,159.5 223.5,159.5C 223.5,155.833 223.5,152.167 223.5,148.5 Z"/></g>
<g><path style="opacity:0.041" fill="#fff4ec" d="M 308.5,158.5 C 310.687,160.282 311.02,162.448 309.5,165C 310,165.5 310.5,166 311,166.5C 311.249,165.376 311.749,164.376 312.5,163.5C 312.997,165.216 313.331,166.883 313.5,168.5C 314.192,167.975 314.692,167.308 315,166.5C 318.894,168.837 323.06,169.171 327.5,167.5C 328.713,167.747 329.38,168.414 329.5,169.5C 322.5,169.5 315.5,169.5 308.5,169.5C 308.5,165.833 308.5,162.167 308.5,158.5 Z"/></g>
<g><path style="opacity:1" fill="#f79320" d="M 423.5,148.5 C 423.5,151.833 423.5,155.167 423.5,158.5C 423.5,158.833 423.5,159.167 423.5,159.5C 419.988,158.945 416.988,159.612 414.5,161.5C 414.957,164.024 414.957,166.691 414.5,169.5C 410.167,169.5 405.833,169.5 401.5,169.5C 401.5,172.833 401.5,176.167 401.5,179.5C 398.223,179.216 395.057,179.549 392,180.5C 391.502,183.817 391.335,187.15 391.5,190.5C 388.167,190.5 384.833,190.5 381.5,190.5C 381.5,194.167 381.5,197.833 381.5,201.5C 377.833,201.5 374.167,201.5 370.5,201.5C 370.5,204.833 370.5,208.167 370.5,211.5C 367.5,211.5 364.5,211.5 361.5,211.5C 361.824,204.646 361.491,197.979 360.5,191.5C 360.167,191.5 359.833,191.5 359.5,191.5C 356.772,190.795 353.939,190.128 351,189.5C 350.502,186.518 350.335,183.518 350.5,180.5C 347.167,180.5 343.833,180.5 340.5,180.5C 340.5,177.5 340.5,174.5 340.5,171.5C 343.85,171.665 347.183,171.498 350.5,171C 351.167,167.667 351.833,164.333 352.5,161C 366.006,160.831 379.34,160.331 392.5,159.5C 392.5,156.167 392.5,152.833 392.5,149.5C 402.653,148.506 412.986,148.172 423.5,148.5 Z"/></g>
<g><path style="opacity:0.008" fill="#fefffe" d="M 178.5,165.5 C 181.137,167.154 180.803,167.654 177.5,167C 178.056,166.617 178.389,166.117 178.5,165.5 Z"/></g>
<g><path style="opacity:0.008" fill="#fffdfd" d="M 160.5,169.5 C 160.167,169.5 159.833,169.5 159.5,169.5C 156.833,169.5 154.167,169.5 151.5,169.5C 151.369,168.761 151.536,168.094 152,167.5C 154.713,168.989 157.213,168.656 159.5,166.5C 160.386,167.325 160.719,168.325 160.5,169.5 Z"/></g>
<g><path style="opacity:0.957" fill="#f0a950" d="M 75.5,158.5 C 78.8499,158.335 82.1832,158.502 85.5,159C 86.4505,162.057 86.7839,165.223 86.5,168.5C 90.0122,167.945 93.0122,168.612 95.5,170.5C 91.5128,170.99 87.8462,170.324 84.5,168.5C 84.5,165.833 84.5,163.167 84.5,160.5C 80.9878,161.055 77.9878,160.388 75.5,158.5 Z"/></g>
<g><path style="opacity:0.078" fill="#fbf4d9" d="M 190.5,159.5 C 190.5,162.833 190.5,166.167 190.5,169.5C 188.5,169.5 186.5,169.5 184.5,169.5C 183.167,169.5 181.833,169.5 180.5,169.5C 180.5,173.167 180.5,176.833 180.5,180.5C 177.167,180.5 173.833,180.5 170.5,180.5C 170.167,180.5 169.833,180.5 169.5,180.5C 172.625,179.521 175.958,179.187 179.5,179.5C 179.019,176.149 178.852,172.815 179,169.5C 182.057,168.549 185.223,168.216 188.5,168.5C 187.945,164.988 188.612,161.988 190.5,159.5 Z"/></g>
<g><path style="opacity:0.024" fill="#fff4f4" d="M 345.5,169.5 C 343.5,169.5 341.5,169.5 339.5,169.5C 341.343,168.717 343.343,168.05 345.5,167.5C 346.463,167.97 346.463,168.637 345.5,169.5 Z"/></g>
<g><path style="opacity:0.133" fill="#fcf4de" d="M 355.5,158.5 C 354.508,158.328 353.842,158.662 353.5,159.5C 352.167,159.5 350.833,159.5 349.5,159.5C 349.5,162.833 349.5,166.167 349.5,169.5C 348.833,169.5 348.167,169.5 347.5,169.5C 348.369,167.283 348.702,164.95 348.5,162.5C 347.5,162.5 346.5,162.5 345.5,162.5C 345.354,160.058 346.187,159.391 348,160.5C 348.374,159.584 348.874,158.75 349.5,158C 351.712,157.211 353.712,157.378 355.5,158.5 Z"/></g>
<g><path style="opacity:0.143" fill="#ffedd6" d="M 404.5,170.5 C 407.833,170.5 411.167,170.5 414.5,170.5C 412.981,172.016 411.147,173.35 409,174.5C 407.667,173.833 406.667,172.833 406,171.5C 404.795,173.196 404.295,174.863 404.5,176.5C 403.427,174.653 403.427,172.653 404.5,170.5 Z"/></g>
<g><path style="opacity:0.005" fill="#fefffe" d="M 334.5,174.5 C 335.077,173.227 335.743,173.227 336.5,174.5C 336.03,175.463 335.363,175.463 334.5,174.5 Z"/></g>
<g><path style="opacity:0.012" fill="#fffede" d="M 89.5,174.5 C 90.675,174.281 91.675,174.614 92.5,175.5C 90.9483,176.798 89.9483,176.465 89.5,174.5 Z"/></g>
<g><path style="opacity:1" fill="#f15b25" d="M 308.5,170.5 C 314.842,170.334 321.175,170.5 327.5,171C 328.478,177.41 328.811,183.91 328.5,190.5C 325.167,190.5 321.833,190.5 318.5,190.5C 318.5,187.167 318.5,183.833 318.5,180.5C 315.482,180.665 312.482,180.498 309.5,180C 308.549,176.943 308.216,173.777 308.5,170.5 Z"/></g>
<g><path style="opacity:0.51" fill="#f4c57f" d="M 404.5,170.5 C 403.427,172.653 403.427,174.653 404.5,176.5C 404.5,178.167 404.5,179.833 404.5,181.5C 403.833,181.5 403.167,181.5 402.5,181.5C 402.335,178.15 402.502,174.817 403,171.5C 403.383,170.944 403.883,170.611 404.5,170.5 Z"/></g>
<g><path style="opacity:0.206" fill="#fddaaf" d="M 84.5,168.5 C 87.8462,170.324 91.5128,170.99 95.5,170.5C 96.4767,173.287 96.81,176.287 96.5,179.5C 97.1834,181.176 98.5168,181.843 100.5,181.5C 100.5,181.833 100.5,182.167 100.5,182.5C 98.2075,182.756 96.0408,182.423 94,181.5C 94.0629,178.428 93.8963,175.428 93.5,172.5C 90.5719,171.516 87.5719,171.183 84.5,171.5C 84.5,170.5 84.5,169.5 84.5,168.5 Z"/></g>
<g><path style="opacity:0.075" fill="#faeed4" d="M 159.5,169.5 C 159.833,169.5 160.167,169.5 160.5,169.5C 161.645,173.311 161.812,177.311 161,181.5C 159.215,182.24 157.382,182.907 155.5,183.5C 154.28,182.289 153.113,182.289 152,183.5C 151.536,182.906 151.369,182.239 151.5,181.5C 154.167,181.5 156.833,181.5 159.5,181.5C 159.5,177.5 159.5,173.5 159.5,169.5 Z"/></g>
<g><path style="opacity:0.014" fill="#fffeec" d="M 164.5,176.5 C 165.5,176.5 166.5,176.5 167.5,176.5C 167.762,177.978 167.429,179.311 166.5,180.5C 164.889,179.68 164.222,178.346 164.5,176.5 Z"/></g>
<g><path style="opacity:0.007" fill="#fefffe" d="M 169.5,176.5 C 170.675,176.281 171.675,176.614 172.5,177.5C 170.948,178.798 169.948,178.465 169.5,176.5 Z"/></g>
<g><path style="opacity:0.538" fill="#f07b59" d="M 308.5,170.5 C 308.5,170.167 308.5,169.833 308.5,169.5C 315.5,169.5 322.5,169.5 329.5,169.5C 329.5,176.5 329.5,183.5 329.5,190.5C 329.5,190.833 329.5,191.167 329.5,191.5C 328.833,191.5 328.5,191.167 328.5,190.5C 328.811,183.91 328.478,177.41 327.5,171C 321.175,170.5 314.842,170.334 308.5,170.5 Z"/></g>
<g><path style="opacity:0.013" fill="#fdfbf4" d="M 329.5,169.5 C 330.306,170.997 330.972,172.664 331.5,174.5C 330.557,179.1 330.223,183.767 330.5,188.5C 334.329,187.931 337.663,188.598 340.5,190.5C 336.833,190.5 333.167,190.5 329.5,190.5C 329.5,183.5 329.5,176.5 329.5,169.5 Z"/></g>
<g><path style="opacity:0.372" fill="#f4b054" d="M 149.5,167.5 C 150.167,168.167 150.833,168.833 151.5,169.5C 154.167,169.5 156.833,169.5 159.5,169.5C 159.5,173.5 159.5,177.5 159.5,181.5C 156.833,181.5 154.167,181.5 151.5,181.5C 150.833,182.167 150.167,182.833 149.5,183.5C 149.5,182.167 149.5,180.833 149.5,179.5C 152.5,179.5 155.5,179.5 158.5,179.5C 158.5,176.5 158.5,173.5 158.5,170.5C 155.5,170.5 152.5,170.5 149.5,170.5C 149.5,169.5 149.5,168.5 149.5,167.5 Z"/></g>
<g><path style="opacity:0.42" fill="#f3b875" d="M 338.5,169.5 C 338.833,169.5 339.167,169.5 339.5,169.5C 341.5,169.5 343.5,169.5 345.5,169.5C 346.167,169.5 346.833,169.5 347.5,169.5C 348.167,169.5 348.833,169.5 349.5,169.5C 346.5,170.167 343.5,170.833 340.5,171.5C 340.5,174.5 340.5,177.5 340.5,180.5C 343.833,180.5 347.167,180.5 350.5,180.5C 350.335,183.518 350.502,186.518 351,189.5C 353.939,190.128 356.772,190.795 359.5,191.5C 356.167,191.5 352.833,191.5 349.5,191.5C 349.5,188.167 349.5,184.833 349.5,181.5C 346.102,181.82 342.768,181.487 339.5,180.5C 338.574,176.906 338.241,173.24 338.5,169.5 Z"/></g>
<g><path style="opacity:0.38" fill="#f1a749" d="M 414.5,169.5 C 414.5,169.833 414.5,170.167 414.5,170.5C 411.167,170.5 407.833,170.5 404.5,170.5C 403.883,170.611 403.383,170.944 403,171.5C 402.502,174.817 402.335,178.15 402.5,181.5C 399.5,181.5 396.5,181.5 393.5,181.5C 393.5,182.833 393.5,184.167 393.5,185.5C 393.5,185.833 393.5,186.167 393.5,186.5C 393.771,188.38 393.104,189.713 391.5,190.5C 391.335,187.15 391.502,183.817 392,180.5C 395.057,179.549 398.223,179.216 401.5,179.5C 401.5,176.167 401.5,172.833 401.5,169.5C 405.833,169.5 410.167,169.5 414.5,169.5 Z"/></g>
<g><path style="opacity:0.01" fill="#fffdfa" d="M 402.5,181.5 C 403.167,181.5 403.833,181.5 404.5,181.5C 404.719,182.675 404.386,183.675 403.5,184.5C 400.553,183.577 397.553,182.911 394.5,182.5C 394.737,183.791 394.404,184.791 393.5,185.5C 393.5,184.167 393.5,182.833 393.5,181.5C 396.5,181.5 399.5,181.5 402.5,181.5 Z"/></g>
<g><path style="opacity:0.006" fill="#fefffe" d="M 99.5,184.5 C 99.8966,183.475 100.563,183.308 101.5,184C 100.906,184.464 100.239,184.631 99.5,184.5 Z"/></g>
<g><path style="opacity:0.694" fill="#f5b977" d="M 96.5,179.5 C 99.8984,179.18 103.232,179.513 106.5,180.5C 107.097,183.971 107.764,187.305 108.5,190.5C 111.167,191.167 113.833,191.833 116.5,192.5C 107.167,194.5 103.5,190.833 105.5,181.5C 103.833,181.5 102.167,181.5 100.5,181.5C 98.5168,181.843 97.1834,181.176 96.5,179.5 Z"/></g>
<g><path style="opacity:0.006" fill="#fefffe" d="M 161.5,184.5 C 162.573,185.251 162.74,186.251 162,187.5C 160.272,186.648 160.105,185.648 161.5,184.5 Z"/></g>
<g><path style="opacity:0.004" fill="#fefffe" d="M 344.5,185.5 C 343.833,184.167 343.833,184.167 344.5,185.5 Z"/></g>
<g><path style="opacity:0.005" fill="#fefffe" d="M 344.5,185.5 C 346.337,185.639 346.67,186.306 345.5,187.5C 344.702,187.043 344.369,186.376 344.5,185.5 Z"/></g>
<g><path style="opacity:0.031" fill="#fffce5" d="M 169.5,187.5 C 169.5,188.5 169.5,189.5 169.5,190.5C 167.167,190.5 164.833,190.5 162.5,190.5C 161.167,190.5 159.833,190.5 158.5,190.5C 158.611,189.883 158.944,189.383 159.5,189C 162.919,188.752 166.253,188.252 169.5,187.5 Z"/></g>
<g><path style="opacity:0.004" fill="#fefffe" d="M 343.5,190.5 C 343.897,189.475 344.563,189.308 345.5,190C 344.906,190.464 344.239,190.631 343.5,190.5 Z"/></g>
<g><path style="opacity:0.227" fill="#f6d498" d="M 149.5,184.5 C 150.814,186.895 150.814,189.395 149.5,192C 146.518,192.498 143.518,192.665 140.5,192.5C 139.833,193.167 139.167,193.833 138.5,194.5C 138.5,193.5 138.5,192.5 138.5,191.5C 141.962,190.518 145.629,190.185 149.5,190.5C 149.5,188.5 149.5,186.5 149.5,184.5 Z"/></g>
<g><path style="opacity:0.004" fill="#fefffe" d="M 145.5,194.5 C 145.897,193.475 146.563,193.308 147.5,194C 146.906,194.464 146.239,194.631 145.5,194.5 Z"/></g>
<g><path style="opacity:0.006" fill="#fefffe" d="M 355.5,195.5 C 355.897,194.475 356.563,194.308 357.5,195C 356.906,195.464 356.239,195.631 355.5,195.5 Z"/></g>
<g><path style="opacity:0.004" fill="#fefffe" d="M 113.5,195.5 C 114.525,195.897 114.692,196.563 114,197.5C 113.536,196.906 113.369,196.239 113.5,195.5 Z"/></g>
<g><path style="opacity:0.213" fill="#fbedcd" d="M 338.5,169.5 C 338.241,173.24 338.574,176.906 339.5,180.5C 342.768,181.487 346.102,181.82 349.5,181.5C 349.5,184.833 349.5,188.167 349.5,191.5C 352.833,191.5 356.167,191.5 359.5,191.5C 359.833,191.5 360.167,191.5 360.5,191.5C 360.5,198.5 360.5,205.5 360.5,212.5C 364.042,212.813 367.375,212.479 370.5,211.5C 371.477,208.713 371.81,205.713 371.5,202.5C 375.167,202.5 378.833,202.5 382.5,202.5C 382.5,198.833 382.5,195.167 382.5,191.5C 385.713,191.81 388.713,191.477 391.5,190.5C 393.104,189.713 393.771,188.38 393.5,186.5C 394.942,188.817 394.608,190.984 392.5,193C 389.518,193.498 386.518,193.665 383.5,193.5C 383.318,195.591 383.652,197.591 384.5,199.5C 384.023,200.931 383.357,202.264 382.5,203.5C 379.914,204.317 376.914,204.317 373.5,203.5C 372.53,207.201 372.53,210.701 373.5,214C 369.256,214.53 365.256,215.03 361.5,215.5C 360.481,214.313 359.314,213.313 358,212.5C 357.667,213.167 357.333,213.833 357,214.5C 355.731,213.095 355.231,211.429 355.5,209.5C 356.978,209.762 358.311,209.429 359.5,208.5C 357.668,207.752 356.001,206.752 354.5,205.5C 353.167,204.167 353.167,202.833 354.5,201.5C 354.54,204.053 356.206,205.053 359.5,204.5C 359.823,200.774 359.489,197.107 358.5,193.5C 355.412,193.648 352.245,193.315 349,192.5C 348.502,189.183 348.335,185.85 348.5,182.5C 344.894,182.789 341.394,182.456 338,181.5C 337.667,178.167 337.333,174.833 337,171.5C 335.164,169.869 335.664,169.202 338.5,169.5 Z"/></g>
<g><path style="opacity:0.478" fill="#f4b56a" d="M 391.5,190.5 C 388.713,191.477 385.713,191.81 382.5,191.5C 382.5,195.167 382.5,198.833 382.5,202.5C 378.833,202.5 375.167,202.5 371.5,202.5C 371.81,205.713 371.477,208.713 370.5,211.5C 370.5,208.167 370.5,204.833 370.5,201.5C 374.167,201.5 377.833,201.5 381.5,201.5C 381.5,197.833 381.5,194.167 381.5,190.5C 384.833,190.5 388.167,190.5 391.5,190.5 Z"/></g>
<g><path style="opacity:0.435" fill="#f2a445" d="M 118.5,211.5 C 116.544,205.588 115.877,199.255 116.5,192.5C 113.833,191.833 111.167,191.167 108.5,190.5C 111.946,188.828 115.113,189.161 118,191.5C 117.295,198.147 117.462,204.814 118.5,211.5 Z"/></g>
<g><path style="opacity:0.324" fill="#fcc793" d="M 158.5,190.5 C 159.833,190.5 161.167,190.5 162.5,190.5C 161.828,191.267 160.995,191.934 160,192.5C 159.5,202.161 159.334,211.828 159.5,221.5C 156.316,223.414 152.649,224.08 148.5,223.5C 151.625,222.521 154.958,222.187 158.5,222.5C 158.5,220.167 158.5,217.833 158.5,215.5C 158.313,206.965 158.313,198.632 158.5,190.5 Z"/></g>
<g><path style="opacity:0.732" fill="#f4af5e" d="M 169.5,180.5 C 169.833,180.5 170.167,180.5 170.5,180.5C 170.665,184.182 170.499,187.848 170,191.5C 167.281,192.444 164.448,192.777 161.5,192.5C 160.909,202.31 160.242,211.977 159.5,221.5C 159.334,211.828 159.5,202.161 160,192.5C 160.995,191.934 161.828,191.267 162.5,190.5C 164.833,190.5 167.167,190.5 169.5,190.5C 169.5,189.5 169.5,188.5 169.5,187.5C 168.377,185.021 168.377,182.688 169.5,180.5 Z"/></g>
<g><path style="opacity:1" fill="#f88724" d="M 328.5,195.5 C 328.5,225.833 328.5,256.167 328.5,286.5C 325.482,286.335 322.482,286.502 319.5,287C 318.833,290.333 318.167,293.667 317.5,297C 314.183,297.498 310.85,297.665 307.5,297.5C 307.806,300.385 307.473,303.052 306.5,305.5C 306.183,302.428 306.516,299.428 307.5,296.5C 310.758,295.583 314.091,295.249 317.5,295.5C 317.216,292.223 317.549,289.057 318.5,286C 321.482,285.502 324.482,285.335 327.5,285.5C 327.169,255.329 327.502,225.329 328.5,195.5 Z"/></g>
<g><path style="opacity:1" fill="#f37420" d="M 307.5,169.5 C 307.833,169.5 308.167,169.5 308.5,169.5C 308.5,169.833 308.5,170.167 308.5,170.5C 308.216,173.777 308.549,176.943 309.5,180C 312.482,180.498 315.482,180.665 318.5,180.5C 318.5,183.833 318.5,187.167 318.5,190.5C 321.833,190.5 325.167,190.5 328.5,190.5C 328.5,191.167 328.833,191.5 329.5,191.5C 329.832,223.338 329.498,255.004 328.5,286.5C 328.5,256.167 328.5,225.833 328.5,195.5C 328.5,194.5 328.5,193.5 328.5,192.5C 325.091,192.751 321.758,192.417 318.5,191.5C 317.796,188.296 317.13,185.129 316.5,182C 313.443,181.744 310.443,181.244 307.5,180.5C 307.218,176.963 307.218,173.296 307.5,169.5 Z"/></g>
<g><path style="opacity:0.628" fill="#f3ab56" d="M 360.5,191.5 C 361.491,197.979 361.824,204.646 361.5,211.5C 364.5,211.5 367.5,211.5 370.5,211.5C 367.375,212.479 364.042,212.813 360.5,212.5C 360.5,205.5 360.5,198.5 360.5,191.5 Z"/></g>
<g><path style="opacity:0.365" fill="#f7af95" d="M 329.5,191.5 C 329.5,191.167 329.5,190.833 329.5,190.5C 333.167,190.5 336.833,190.5 340.5,190.5C 340.5,190.833 340.5,191.167 340.5,191.5C 340.5,194.833 340.5,198.167 340.5,201.5C 340.167,201.5 339.833,201.5 339.5,201.5C 339.5,198.167 339.5,194.833 339.5,191.5C 336.167,191.5 332.833,191.5 329.5,191.5 Z"/></g>
<g><path style="opacity:0.014" fill="#faf9ec" d="M 340.5,191.5 C 341.473,193.948 341.806,196.615 341.5,199.5C 343.143,199.52 344.476,198.853 345.5,197.5C 347.071,198.309 348.738,198.643 350.5,198.5C 350.5,199.5 350.5,200.5 350.5,201.5C 347.167,201.5 343.833,201.5 340.5,201.5C 340.5,198.167 340.5,194.833 340.5,191.5 Z"/></g>
<g><path style="opacity:0.536" fill="#f36e49" d="M 339.5,201.5 C 339.833,201.5 340.167,201.5 340.5,201.5C 343.833,201.5 347.167,201.5 350.5,201.5C 350.5,229.833 350.5,258.167 350.5,286.5C 347.167,286.5 343.833,286.5 340.5,286.5C 340.167,286.5 339.833,286.5 339.5,286.5C 342.625,285.521 345.958,285.187 349.5,285.5C 349.5,257.833 349.5,230.167 349.5,202.5C 345.958,202.813 342.625,202.479 339.5,201.5 Z"/></g>
<g><path style="opacity:0.081" fill="#f9ecdc" d="M 350.5,201.5 C 351.376,201.369 352.043,201.702 352.5,202.5C 351.675,230.791 351.175,259.124 351,287.5C 350.481,288.516 349.647,289.182 348.5,289.5C 346.218,288.777 343.884,288.443 341.5,288.5C 341.824,295.354 341.491,302.021 340.5,308.5C 340.5,301.167 340.5,293.833 340.5,286.5C 343.833,286.5 347.167,286.5 350.5,286.5C 350.5,258.167 350.5,229.833 350.5,201.5 Z"/></g>
<g><path style="opacity:0.813" fill="#f6b455" d="M 138.5,191.5 C 138.5,192.5 138.5,193.5 138.5,194.5C 138.5,200.833 138.5,207.167 138.5,213.5C 134.833,213.5 131.167,213.5 127.5,213.5C 125.833,213.5 124.167,213.5 122.5,213.5C 120.821,213.715 119.821,213.048 119.5,211.5C 125.5,211.5 131.5,211.5 137.5,211.5C 137.176,204.646 137.509,197.979 138.5,191.5 Z"/></g>
<g><path style="opacity:0.059" fill="#fbf0e0" d="M 140.5,192.5 C 139.602,200.124 139.269,207.791 139.5,215.5C 135.183,215.917 131.183,215.25 127.5,213.5C 131.167,213.5 134.833,213.5 138.5,213.5C 138.5,207.167 138.5,200.833 138.5,194.5C 139.167,193.833 139.833,193.167 140.5,192.5 Z"/></g>
<g><path style="opacity:0.01" fill="#fffeda" d="M 115.5,213.5 C 115.631,214.376 115.298,215.043 114.5,215.5C 113.127,213.192 113.46,212.525 115.5,213.5 Z"/></g>
<g><path style="opacity:0.007" fill="#fefffe" d="M 113.5,218.5 C 115.693,217.203 118.027,217.203 120.5,218.5C 118.141,219.714 115.808,219.714 113.5,218.5 Z"/></g>
<g><path style="opacity:0.012" fill="#fdf5e2" d="M 100.5,182.5 C 100.5,182.167 100.5,181.833 100.5,181.5C 102.167,181.5 103.833,181.5 105.5,181.5C 103.5,190.833 107.167,194.5 116.5,192.5C 115.877,199.255 116.544,205.588 118.5,211.5C 118.833,211.5 119.167,211.5 119.5,211.5C 119.821,213.048 120.821,213.715 122.5,213.5C 124.22,214.864 126.22,215.864 128.5,216.5C 128.833,217.167 129.167,217.833 129.5,218.5C 129.587,222.201 129.254,225.868 128.5,229.5C 128.784,227.585 128.451,225.919 127.5,224.5C 122.712,223.172 117.546,222.505 112,222.5C 106.833,222.667 101.667,222.833 96.5,223C 95.244,223.417 94.5774,224.25 94.5,225.5C 93.2006,223.847 93.5339,222.347 95.5,221C 105.849,220.832 116.183,220.332 126.5,219.5C 124.135,218.915 122.135,217.748 120.5,216C 120.833,215.667 121.167,215.333 121.5,215C 120.101,214.405 118.768,214.572 117.5,215.5C 116.818,214.757 116.151,214.091 115.5,213.5C 115.5,206.833 115.5,200.167 115.5,193.5C 111.692,193.837 108.026,193.337 104.5,192C 103.883,189.242 103.716,186.409 104,183.5C 102.989,182.663 101.822,182.33 100.5,182.5 Z"/></g>
<g><path style="opacity:0.004" fill="#fefffe" d="M 369.5,221.5 C 368.833,220.167 368.833,220.167 369.5,221.5 Z"/></g>
<g><path style="opacity:0.012" fill="#fdfded" d="M 403.5,221.5 C 392.5,221.5 381.5,221.5 370.5,221.5C 371.263,220.732 372.263,220.232 373.5,220C 372.328,219.581 371.328,218.915 370.5,218C 372.319,217.217 373.652,217.717 374.5,219.5C 384.325,220.167 393.992,220.833 403.5,221.5 Z"/></g>
<g><path style="opacity:0.088" fill="#fde4c0" d="M 369.5,221.5 C 369.833,221.5 370.167,221.5 370.5,221.5C 381.5,221.5 392.5,221.5 403.5,221.5C 404.338,221.842 404.672,222.508 404.5,223.5C 393.372,222.201 382.372,222.201 371.5,223.5C 370.662,223.842 370.328,224.508 370.5,225.5C 369.566,224.432 369.232,223.099 369.5,221.5 Z"/></g>
<g><path style="opacity:0.551" fill="#fbbf7d" d="M 371.5,223.5 C 382.372,222.201 393.372,222.201 404.5,223.5C 404.5,224.167 404.5,224.833 404.5,225.5C 403.532,227.607 403.198,229.941 403.5,232.5C 402.795,229.772 402.128,226.939 401.5,224C 391.506,223.5 381.506,223.334 371.5,223.5 Z"/></g>
<g><path style="opacity:0.525" fill="#f9c285" d="M 127.5,224.5 C 117.577,223.36 107.577,223.193 97.5,224C 96.5495,227.057 96.2161,230.223 96.5,233.5C 90.1667,233.5 83.8333,233.5 77.5,233.5C 82.9753,232.511 88.642,232.178 94.5,232.5C 94.5,231.5 94.5,230.5 94.5,229.5C 94.5,228.167 94.5,226.833 94.5,225.5C 94.5774,224.25 95.244,223.417 96.5,223C 101.667,222.833 106.833,222.667 112,222.5C 117.546,222.505 122.712,223.172 127.5,224.5 Z"/></g>
<g><path style="opacity:1" fill="#f79320" d="M 127.5,224.5 C 127.5,241.5 127.5,258.5 127.5,275.5C 121.158,275.666 114.825,275.5 108.5,275C 108.167,271.428 107.167,268.261 105.5,265.5C 95.8333,265.5 86.1667,265.5 76.5,265.5C 76.2254,261.436 75.2254,257.77 73.5,254.5C 66.5,254.5 59.5,254.5 52.5,254.5C 52.5,251.167 52.5,247.833 52.5,244.5C 59.5,244.5 66.5,244.5 73.5,244.5C 75.4136,241.316 76.0803,237.649 75.5,233.5C 76.1667,233.5 76.8333,233.5 77.5,233.5C 83.8333,233.5 90.1667,233.5 96.5,233.5C 96.2161,230.223 96.5495,227.057 97.5,224C 107.577,223.193 117.577,223.36 127.5,224.5 Z"/></g>
<g><path style="opacity:0.438" fill="#fab773" d="M 371.5,223.5 C 371.532,248.315 371.532,272.982 371.5,297.5C 367.731,297.244 364.064,297.577 360.5,298.5C 363.337,296.598 366.671,295.931 370.5,296.5C 370.5,295.5 370.5,294.5 370.5,293.5C 370.5,270.833 370.5,248.167 370.5,225.5C 370.328,224.508 370.662,223.842 371.5,223.5 Z"/></g>
<g><path style="opacity:0.016" fill="#fdf3eb" d="M 425.5,239.5 C 425.923,237.219 425.256,235.552 423.5,234.5C 423.5,234.167 423.5,233.833 423.5,233.5C 417.167,232.833 410.833,232.167 404.5,231.5C 411.226,231.795 417.892,231.462 424.5,230.5C 425.845,231.347 426.845,232.513 427.5,234C 426.891,235.948 426.224,237.782 425.5,239.5 Z"/></g>
<g><path style="opacity:0.11" fill="#fdd6b1" d="M 404.5,225.5 C 405.641,227.451 405.641,229.451 404.5,231.5C 410.833,232.167 417.167,232.833 423.5,233.5C 416.646,233.824 409.979,233.491 403.5,232.5C 403.198,229.941 403.532,227.607 404.5,225.5 Z"/></g>
<g><path style="opacity:0.07" fill="#fbf0e9" d="M 158.5,215.5 C 158.5,217.833 158.5,220.167 158.5,222.5C 154.958,222.187 151.625,222.521 148.5,223.5C 148.5,240.833 148.5,258.167 148.5,275.5C 151.625,276.479 154.958,276.813 158.5,276.5C 158.5,279.167 158.5,281.833 158.5,284.5C 157.539,282.735 157.205,280.735 157.5,278.5C 154.223,278.784 151.057,278.451 148,277.5C 147.82,260.123 147.32,242.789 146.5,225.5C 147.309,223.929 147.643,222.262 147.5,220.5C 150.833,220.5 154.167,220.5 157.5,220.5C 157.216,218.585 157.549,216.919 158.5,215.5 Z"/></g>
<g><path style="opacity:0.008" fill="#fefef9" d="M 128.5,236.5 C 129.496,252.325 129.83,268.325 129.5,284.5C 128.833,284.5 128.167,284.5 127.5,284.5C 127.5,283.833 127.167,283.5 126.5,283.5C 125.222,283.782 124.222,284.449 123.5,285.5C 121.548,282.141 122.882,279.974 127.5,279C 120.131,279.212 112.797,278.712 105.5,277.5C 113.019,277.825 120.352,277.492 127.5,276.5C 128.496,263.344 128.829,250.01 128.5,236.5 Z"/></g>
<g><path style="opacity:0.21" fill="#f4bd72" d="M 75.5,233.5 C 76.0803,237.649 75.4136,241.316 73.5,244.5C 72.9197,240.351 73.5864,236.684 75.5,233.5 Z"/></g>
<g><path style="opacity:0.686" fill="#f8b868" d="M 423.5,234.5 C 425.256,235.552 425.923,237.219 425.5,239.5C 425.5,240.5 425.5,241.5 425.5,242.5C 425.5,243.167 425.5,243.833 425.5,244.5C 424.883,244.389 424.383,244.056 424,243.5C 423.502,240.518 423.335,237.518 423.5,234.5 Z"/></g>
<g><path style="opacity:0.098" fill="#fcebdb" d="M 94.5,229.5 C 94.5,230.5 94.5,231.5 94.5,232.5C 88.642,232.178 82.9753,232.511 77.5,233.5C 76.8333,233.5 76.1667,233.5 75.5,233.5C 73.5864,236.684 72.9197,240.351 73.5,244.5C 66.5,244.5 59.5,244.5 52.5,244.5C 52.5,247.833 52.5,251.167 52.5,254.5C 59.5,254.5 66.5,254.5 73.5,254.5C 73.5,255.833 73.5,257.167 73.5,258.5C 66.2131,257.76 58.8798,257.094 51.5,256.5C 51.5,251.833 51.5,247.167 51.5,242.5C 57.9,241.299 64.0666,241.299 70,242.5C 72.6682,240.308 73.1682,237.641 71.5,234.5C 71.9767,233.522 72.6433,232.689 73.5,232C 72.376,231.751 71.376,231.251 70.5,230.5C 71.1667,230.167 71.8333,229.833 72.5,229.5C 79.9658,232.124 87.2991,232.124 94.5,229.5 Z"/></g>
<g><path style="opacity:0.286" fill="#faddc8" d="M 446.5,245.5 C 439.687,244.509 432.687,244.175 425.5,244.5C 425.5,243.833 425.5,243.167 425.5,242.5C 432.021,242.199 438.688,242.032 445.5,242C 447.495,242.924 447.828,244.09 446.5,245.5 Z"/></g>
<g><path style="opacity:0.067" fill="#fbe3d1" d="M 446.5,251.5 C 447.807,253.223 447.807,255.057 446.5,257C 439.132,257.025 432.132,257.191 425.5,257.5C 425.5,256.5 425.5,255.5 425.5,254.5C 432.5,254.5 439.5,254.5 446.5,254.5C 446.5,253.5 446.5,252.5 446.5,251.5 Z"/></g>
<g><path style="opacity:0.718" fill="#f9b86a" d="M 425.5,254.5 C 425.5,255.5 425.5,256.5 425.5,257.5C 425.5,257.833 425.5,258.167 425.5,258.5C 425.975,261.082 425.308,263.082 423.5,264.5C 423.335,261.482 423.502,258.482 424,255.5C 424.383,254.944 424.883,254.611 425.5,254.5 Z"/></g>
<g><path style="opacity:0.722" fill="#f4ba6b" d="M 73.5,254.5 C 75.2254,257.77 76.2254,261.436 76.5,265.5C 75.5,265.5 74.5,265.5 73.5,265.5C 73.5,264.167 73.5,262.833 73.5,261.5C 73.5,260.5 73.5,259.5 73.5,258.5C 73.5,257.167 73.5,255.833 73.5,254.5 Z"/></g>
<g><path style="opacity:0.115" fill="#fedab9" d="M 423.5,265.5 C 416.935,265.851 410.601,266.851 404.5,268.5C 405.091,269.151 405.757,269.818 406.5,270.5C 405.807,271.518 405.141,272.518 404.5,273.5C 403.527,271.052 403.194,268.385 403.5,265.5C 410.167,265.5 416.833,265.5 423.5,265.5 Z"/></g>
<g><path style="opacity:0.016" fill="#fee7d5" d="M 73.5,261.5 C 73.5,262.833 73.5,264.167 73.5,265.5C 74.5,265.5 75.5,265.5 76.5,265.5C 86.1667,265.5 95.8333,265.5 105.5,265.5C 105.5,266.833 105.5,268.167 105.5,269.5C 95.084,267.723 84.4173,266.89 73.5,267C 71.0166,265.145 71.0166,263.311 73.5,261.5 Z"/></g>
<g><path style="opacity:0.027" fill="#fcf4e9" d="M 425.5,258.5 C 426.283,260.343 426.95,262.343 427.5,264.5C 426.974,266.23 425.974,267.564 424.5,268.5C 417.803,267.17 411.137,267.17 404.5,268.5C 410.601,266.851 416.935,265.851 423.5,265.5C 423.5,265.167 423.5,264.833 423.5,264.5C 425.308,263.082 425.975,261.082 425.5,258.5 Z"/></g>
<g><path style="opacity:0.555" fill="#f9bd78" d="M 127.5,224.5 C 128.451,225.919 128.784,227.585 128.5,229.5C 128.5,231.833 128.5,234.167 128.5,236.5C 128.829,250.01 128.496,263.344 127.5,276.5C 120.825,276.666 114.158,276.5 107.5,276C 105.845,274.556 105.178,272.722 105.5,270.5C 105.5,270.167 105.5,269.833 105.5,269.5C 105.5,268.167 105.5,266.833 105.5,265.5C 107.167,268.261 108.167,271.428 108.5,275C 114.825,275.5 121.158,275.666 127.5,275.5C 127.5,258.5 127.5,241.5 127.5,224.5 Z"/></g>
<g><path style="opacity:0.549" fill="#fabc79" d="M 401.5,275.5 C 395.355,276.49 389.022,276.823 382.5,276.5C 382.5,278.833 382.5,281.167 382.5,283.5C 381.527,281.052 381.194,278.385 381.5,275.5C 388.167,275.5 394.833,275.5 401.5,275.5 Z"/></g>
<g><path style="opacity:0.09" fill="#fce8c2" d="M 105.5,270.5 C 105.178,272.722 105.845,274.556 107.5,276C 114.158,276.5 120.825,276.666 127.5,276.5C 120.352,277.492 113.019,277.825 105.5,277.5C 104.761,277.631 104.094,277.464 103.5,277C 104.117,274.723 104.784,272.556 105.5,270.5 Z"/></g>
<g><path style="opacity:0.012" fill="#fdf1d7" d="M 401.5,275.5 C 402.5,275.5 403.5,275.5 404.5,275.5C 404.586,276.496 404.252,277.329 403.5,278C 401.567,278.251 399.734,278.751 398,279.5C 393.263,278.531 388.43,278.197 383.5,278.5C 383.5,287.5 383.5,296.5 383.5,305.5C 386.356,305.928 389.356,306.095 392.5,306C 394.608,308.016 394.942,310.183 393.5,312.5C 393.703,310.61 393.037,309.11 391.5,308C 388.518,307.502 385.518,307.335 382.5,307.5C 382.5,306.167 382.5,304.833 382.5,303.5C 382.5,296.833 382.5,290.167 382.5,283.5C 382.5,281.167 382.5,278.833 382.5,276.5C 389.022,276.823 395.355,276.49 401.5,275.5 Z"/></g>
<g><path style="opacity:0.32" fill="#f9c38b" d="M 148.5,275.5 C 152.649,274.92 156.316,275.586 159.5,277.5C 159.334,287.172 159.5,296.839 160,306.5C 163.394,307.456 166.894,307.789 170.5,307.5C 170.5,311.167 170.5,314.833 170.5,318.5C 169.521,315.375 169.187,312.042 169.5,308.5C 165.833,308.5 162.167,308.5 158.5,308.5C 158.303,300.702 158.303,292.702 158.5,284.5C 158.5,281.833 158.5,279.167 158.5,276.5C 154.958,276.813 151.625,276.479 148.5,275.5 Z"/></g>
<g><path style="opacity:0.73" fill="#f2a547" d="M 159.5,277.5 C 160.242,287.023 160.909,296.69 161.5,306.5C 164.833,306.5 168.167,306.5 171.5,306.5C 171.5,310.167 171.5,313.833 171.5,317.5C 174.713,317.19 177.713,317.523 180.5,318.5C 177.167,318.5 173.833,318.5 170.5,318.5C 170.5,314.833 170.5,311.167 170.5,307.5C 166.894,307.789 163.394,307.456 160,306.5C 159.5,296.839 159.334,287.172 159.5,277.5 Z"/></g>
<g><path style="opacity:0.733" fill="#ee7952" d="M 339.5,286.5 C 339.5,293.5 339.5,300.5 339.5,307.5C 336.167,307.5 332.833,307.5 329.5,307.5C 332.287,306.523 335.287,306.19 338.5,306.5C 338.176,299.646 338.509,292.979 339.5,286.5 Z"/></g>
<g><path style="opacity:0.329" fill="#f5b194" d="M 339.5,286.5 C 339.833,286.5 340.167,286.5 340.5,286.5C 340.5,293.833 340.5,301.167 340.5,308.5C 336.833,308.5 333.167,308.5 329.5,308.5C 329.5,308.167 329.5,307.833 329.5,307.5C 332.833,307.5 336.167,307.5 339.5,307.5C 339.5,300.5 339.5,293.5 339.5,286.5 Z"/></g>
<g><path style="opacity:0.12" fill="#fdf0d7" d="M 126.5,283.5 C 127.167,283.5 127.5,283.833 127.5,284.5C 128.167,284.5 128.833,284.5 129.5,284.5C 132.728,283.586 136.061,283.253 139.5,283.5C 139.233,291.222 139.566,298.889 140.5,306.5C 139.883,306.389 139.383,306.056 139,305.5C 138.5,298.842 138.334,292.175 138.5,285.5C 135.482,285.335 132.482,285.502 129.5,286C 128.944,286.383 128.611,286.883 128.5,287.5C 127.523,290.287 127.19,293.287 127.5,296.5C 124.15,296.335 120.817,296.502 117.5,297C 116.549,300.057 116.216,303.223 116.5,306.5C 115.167,306.5 113.833,306.5 112.5,306.5C 112.5,306.167 112.5,305.833 112.5,305.5C 113.5,305.5 114.5,305.5 115.5,305.5C 115.167,301.5 114.833,297.5 114.5,293.5C 116.827,293.665 118.993,294.331 121,295.5C 121.833,293.5 122.667,291.5 123.5,289.5C 124.451,290.326 125.451,290.492 126.5,290C 125.778,288.249 124.778,286.749 123.5,285.5C 124.222,284.449 125.222,283.782 126.5,283.5 Z"/></g>
<g><path style="opacity:0.404" fill="#f4b670" d="M 128.5,287.5 C 128.5,290.833 128.5,294.167 128.5,297.5C 125.15,297.335 121.817,297.502 118.5,298C 117.833,301.333 117.167,304.667 116.5,308C 113.518,308.498 110.518,308.665 107.5,308.5C 107.821,306.952 108.821,306.285 110.5,306.5C 111.167,306.5 111.833,306.5 112.5,306.5C 113.833,306.5 115.167,306.5 116.5,306.5C 116.216,303.223 116.549,300.057 117.5,297C 120.817,296.502 124.15,296.335 127.5,296.5C 127.19,293.287 127.523,290.287 128.5,287.5 Z"/></g>
<g><path style="opacity:0.633" fill="#f3b460" d="M 140.5,306.5 C 144.012,305.945 147.012,306.612 149.5,308.5C 145.5,308.5 141.5,308.5 137.5,308.5C 137.831,301.137 137.497,293.803 136.5,286.5C 133.916,287.393 131.249,287.726 128.5,287.5C 128.611,286.883 128.944,286.383 129.5,286C 132.482,285.502 135.482,285.335 138.5,285.5C 138.334,292.175 138.5,298.842 139,305.5C 139.383,306.056 139.883,306.389 140.5,306.5 Z"/></g>
<g><path style="opacity:0.013" fill="#fafff8" d="M 360.5,294.5 C 359.833,294.5 359.5,294.833 359.5,295.5C 359.5,296.833 359.5,298.167 359.5,299.5C 358.504,299.586 357.671,299.252 357,298.5C 356.727,296.899 356.227,295.399 355.5,294C 357.387,293.22 359.054,293.387 360.5,294.5 Z"/></g>
<g><path style="opacity:0.004" fill="#fefffe" d="M 110.5,297.5 C 112.337,297.639 112.67,298.306 111.5,299.5C 110.702,299.043 110.369,298.376 110.5,297.5 Z"/></g>
<g><path style="opacity:0.007" fill="#fefffe" d="M 112.5,305.5 C 110.524,304.573 110.191,303.24 111.5,301.5C 113.7,302.325 114.034,303.658 112.5,305.5 Z"/></g>
<g><path style="opacity:0.009" fill="#feffd3" d="M 355.5,301.5 C 357.337,301.639 357.67,302.306 356.5,303.5C 355.702,303.043 355.369,302.376 355.5,301.5 Z"/></g>
<g><path style="opacity:1" fill="#f79423" d="M 149.5,308.5 C 150.802,318.496 150.802,328.496 149.5,338.5C 135.163,338.333 120.829,338.5 106.5,339C 105.544,342.394 105.211,345.894 105.5,349.5C 103.901,349.232 102.568,349.566 101.5,350.5C 94.1667,350.5 86.8333,350.5 79.5,350.5C 78.4324,349.566 77.099,349.232 75.5,349.5C 75.5,346.5 75.5,343.5 75.5,340.5C 78.8499,340.665 82.1832,340.498 85.5,340C 86.4505,336.943 86.7839,333.777 86.5,330.5C 90.3076,330.837 93.9743,330.337 97.5,329C 97.6782,326.045 97.6782,322.879 97.5,319.5C 100.713,319.81 103.713,319.477 106.5,318.5C 107.479,315.375 107.813,312.042 107.5,308.5C 110.518,308.665 113.518,308.498 116.5,308C 117.167,304.667 117.833,301.333 118.5,298C 121.817,297.502 125.15,297.335 128.5,297.5C 128.5,294.167 128.5,290.833 128.5,287.5C 131.249,287.726 133.916,287.393 136.5,286.5C 137.497,293.803 137.831,301.137 137.5,308.5C 141.5,308.5 145.5,308.5 149.5,308.5 Z"/></g>
<g><path style="opacity:1" fill="#f79320" d="M 371.5,223.5 C 381.506,223.334 391.506,223.5 401.5,224C 402.128,226.939 402.795,229.772 403.5,232.5C 409.979,233.491 416.646,233.824 423.5,233.5C 423.5,233.833 423.5,234.167 423.5,234.5C 423.335,237.518 423.502,240.518 424,243.5C 424.383,244.056 424.883,244.389 425.5,244.5C 432.687,244.175 439.687,244.509 446.5,245.5C 447.38,247.611 447.38,249.611 446.5,251.5C 446.5,252.5 446.5,253.5 446.5,254.5C 439.5,254.5 432.5,254.5 425.5,254.5C 424.883,254.611 424.383,254.944 424,255.5C 423.502,258.482 423.335,261.482 423.5,264.5C 423.5,264.833 423.5,265.167 423.5,265.5C 416.833,265.5 410.167,265.5 403.5,265.5C 403.194,268.385 403.527,271.052 404.5,273.5C 404.5,274.167 404.5,274.833 404.5,275.5C 403.5,275.5 402.5,275.5 401.5,275.5C 394.833,275.5 388.167,275.5 381.5,275.5C 381.194,278.385 381.527,281.052 382.5,283.5C 382.5,290.167 382.5,296.833 382.5,303.5C 381.193,305.223 381.193,307.057 382.5,309C 385.482,309.498 388.482,309.665 391.5,309.5C 391.5,312.833 391.5,316.167 391.5,319.5C 394.833,319.5 398.167,319.5 401.5,319.5C 401.216,322.777 401.549,325.943 402.5,329C 406.486,329.499 410.486,329.666 414.5,329.5C 414.5,330.5 414.5,331.5 414.5,332.5C 414.708,334.92 414.374,337.253 413.5,339.5C 416.768,340.487 420.102,340.82 423.5,340.5C 423.5,343.5 423.5,346.5 423.5,349.5C 410.167,349.5 396.833,349.5 383.5,349.5C 383.5,345.833 383.5,342.167 383.5,338.5C 370.833,338.5 358.167,338.5 345.5,338.5C 343.833,338.5 342.167,338.5 340.5,338.5C 340.5,335.5 340.5,332.5 340.5,329.5C 344.106,329.789 347.606,329.456 351,328.5C 350.742,322.202 350.575,315.869 350.5,309.5C 360.323,312.007 364.323,308.34 362.5,298.5C 365.713,298.81 368.713,298.477 371.5,297.5C 371.532,272.982 371.532,248.315 371.5,223.5 Z"/></g>
<g><path style="opacity:0.004" fill="#fefffe" d="M 146.5,304.5 C 147.833,305.167 147.833,305.167 146.5,304.5 Z"/></g>
<g><path style="opacity:0.009" fill="#fffee4" d="M 343.5,307.5 C 345.465,307.948 345.798,308.948 344.5,310.5C 342.481,309.867 342.147,308.867 343.5,307.5 Z"/></g>
<g><path style="opacity:1" fill="#f15a25" d="M 329.5,191.5 C 332.833,191.5 336.167,191.5 339.5,191.5C 339.5,194.833 339.5,198.167 339.5,201.5C 342.625,202.479 345.958,202.813 349.5,202.5C 349.5,230.167 349.5,257.833 349.5,285.5C 345.958,285.187 342.625,285.521 339.5,286.5C 338.509,292.979 338.176,299.646 338.5,306.5C 335.287,306.19 332.287,306.523 329.5,307.5C 328.883,307.611 328.383,307.944 328,308.5C 327.502,311.482 327.335,314.482 327.5,317.5C 324.287,317.19 321.287,317.523 318.5,318.5C 317.521,321.625 317.187,324.958 317.5,328.5C 313.958,328.187 310.625,328.521 307.5,329.5C 306.834,332.028 306.168,334.694 305.5,337.5C 302.689,338.08 300.023,338.746 297.5,339.5C 296.521,342.625 296.187,345.958 296.5,349.5C 269.165,349.667 241.831,349.5 214.5,349C 213.868,345.73 213.201,342.563 212.5,339.5C 206.021,338.509 199.354,338.176 192.5,338.5C 192.5,335.5 192.5,332.5 192.5,329.5C 192.833,329.5 193.167,329.5 193.5,329.5C 209.814,330.129 226.147,330.462 242.5,330.5C 257.516,330.499 272.182,329.833 286.5,328.5C 286.5,325.167 286.5,321.833 286.5,318.5C 289.833,318.5 293.167,318.5 296.5,318.5C 297.833,315.167 297.833,311.833 296.5,308.5C 299.456,307.863 302.456,307.363 305.5,307C 306.056,306.617 306.389,306.117 306.5,305.5C 307.473,303.052 307.806,300.385 307.5,297.5C 310.85,297.665 314.183,297.498 317.5,297C 318.167,293.667 318.833,290.333 319.5,287C 322.482,286.502 325.482,286.335 328.5,286.5C 329.498,255.004 329.832,223.338 329.5,191.5 Z"/></g>
<g><path style="opacity:0.509" fill="#f3a242" d="M 371.5,297.5 C 368.713,298.477 365.713,298.81 362.5,298.5C 364.323,308.34 360.323,312.007 350.5,309.5C 350.575,315.869 350.742,322.202 351,328.5C 347.606,329.456 344.106,329.789 340.5,329.5C 340.5,329.167 340.5,328.833 340.5,328.5C 343.5,328.5 346.5,328.5 349.5,328.5C 349.334,321.825 349.5,315.158 350,308.5C 353.076,307.712 356.242,307.212 359.5,307C 360.444,304.281 360.777,301.448 360.5,298.5C 364.064,297.577 367.731,297.244 371.5,297.5 Z"/></g>
<g><path style="opacity:0.027" fill="#fff7ef" d="M 393.5,315.5 C 396.941,316.097 400.275,316.763 403.5,317.5C 403.167,317.5 402.833,317.5 402.5,317.5C 398.988,318.055 395.988,317.388 393.5,315.5 Z"/></g>
<g><path style="opacity:0.361" fill="#f5b873" d="M 107.5,308.5 C 107.813,312.042 107.479,315.375 106.5,318.5C 103.167,318.5 99.8333,318.5 96.5,318.5C 99.2869,317.523 102.287,317.19 105.5,317.5C 104.945,313.988 105.612,310.988 107.5,308.5 Z"/></g>
<g><path style="opacity:0.647" fill="#e97456" d="M 329.5,307.5 C 329.5,307.833 329.5,308.167 329.5,308.5C 329.5,311.833 329.5,315.167 329.5,318.5C 325.833,318.5 322.167,318.5 318.5,318.5C 321.287,317.523 324.287,317.19 327.5,317.5C 327.335,314.482 327.502,311.482 328,308.5C 328.383,307.944 328.883,307.611 329.5,307.5 Z"/></g>
<g><path style="opacity:0.202" fill="#feebdb" d="M 329.5,308.5 C 333.167,308.5 336.833,308.5 340.5,308.5C 340.785,310.288 340.452,311.955 339.5,313.5C 337.592,309.159 334.592,308.325 330.5,311C 332.957,312.512 332.957,313.846 330.5,315C 331.479,316.779 331.146,318.445 329.5,320C 328.451,320.492 327.451,320.326 326.5,319.5C 325.5,320.167 324.5,320.833 323.5,321.5C 320.832,318.339 319.499,318.839 319.5,323C 319.748,324.716 320.415,326.216 321.5,327.5C 320.995,328.919 319.995,329.585 318.5,329.5C 318.5,325.833 318.5,322.167 318.5,318.5C 322.167,318.5 325.833,318.5 329.5,318.5C 329.5,315.167 329.5,311.833 329.5,308.5 Z"/></g>
<g><path style="opacity:0.922" fill="#f1a649" d="M 382.5,303.5 C 382.5,304.833 382.5,306.167 382.5,307.5C 385.518,307.335 388.518,307.502 391.5,308C 393.037,309.11 393.703,310.61 393.5,312.5C 393.5,313.5 393.5,314.5 393.5,315.5C 395.988,317.388 398.988,318.055 402.5,317.5C 402.211,321.106 402.544,324.606 403.5,328C 407.152,328.499 410.818,328.665 414.5,328.5C 414.5,328.833 414.5,329.167 414.5,329.5C 410.486,329.666 406.486,329.499 402.5,329C 401.549,325.943 401.216,322.777 401.5,319.5C 398.167,319.5 394.833,319.5 391.5,319.5C 391.5,316.167 391.5,312.833 391.5,309.5C 388.482,309.665 385.482,309.498 382.5,309C 381.193,307.057 381.193,305.223 382.5,303.5 Z"/></g>
<g><path style="opacity:0.2" fill="#feebcd" d="M 110.5,306.5 C 108.821,306.285 107.821,306.952 107.5,308.5C 105.612,310.988 104.945,313.988 105.5,317.5C 102.287,317.19 99.2869,317.523 96.5,318.5C 95.5206,321.625 95.1872,324.958 95.5,328.5C 92.1501,328.335 88.8168,328.502 85.5,329C 84.5495,332.057 84.2161,335.223 84.5,338.5C 80.8333,338.5 77.1667,338.5 73.5,338.5C 76.6248,337.521 79.9581,337.187 83.5,337.5C 83.4569,334.413 83.2903,331.413 83,328.5C 86.459,327.867 89.959,327.2 93.5,326.5C 93.4626,323.351 93.796,320.185 94.5,317C 96.5,316.667 98.5,316.333 100.5,316C 99.3044,315.346 99.3044,314.846 100.5,314.5C 101.524,315.853 102.857,316.52 104.5,316.5C 104.18,313.102 104.513,309.768 105.5,306.5C 107.316,305.265 108.983,305.265 110.5,306.5 Z"/></g>
<g><path style="opacity:0.01" fill="#fffee3" d="M 169.5,320.5 C 170.675,320.281 171.675,320.614 172.5,321.5C 170.948,322.798 169.948,322.465 169.5,320.5 Z"/></g>
<g><path style="opacity:0.007" fill="#feffcb" d="M 89.5,322.5 C 91.337,322.639 91.6704,323.306 90.5,324.5C 89.7025,324.043 89.3691,323.376 89.5,322.5 Z"/></g>
<g><path style="opacity:0.184" fill="#fdf0dd" d="M 158.5,308.5 C 162.167,308.5 165.833,308.5 169.5,308.5C 169.187,312.042 169.521,315.375 170.5,318.5C 173.833,318.5 177.167,318.5 180.5,318.5C 180.5,321.833 180.5,325.167 180.5,328.5C 180.5,328.833 180.5,329.167 180.5,329.5C 179.5,329.5 178.5,329.5 177.5,329.5C 178.946,326.662 179.446,323.662 179,320.5C 178.667,320.167 178.333,319.833 178,319.5C 177.397,322.906 176.231,323.239 174.5,320.5C 172.604,319.534 170.604,319.201 168.5,319.5C 168.917,316.921 168.25,314.754 166.5,313C 168.815,311.632 168.815,310.799 166.5,310.5C 164.952,312.376 162.952,313.376 160.5,313.5C 160.608,311.486 159.942,309.82 158.5,308.5 Z"/></g>
<g><path style="opacity:1" fill="#ef5e28" d="M 180.5,318.5 C 180.833,318.5 181.167,318.5 181.5,318.5C 189.336,317.34 192.336,320.673 190.5,328.5C 187.167,328.5 183.833,328.5 180.5,328.5C 180.5,325.167 180.5,321.833 180.5,318.5 Z"/></g>
<g><path style="opacity:0.941" fill="#f1a64c" d="M 96.5,318.5 C 99.8333,318.5 103.167,318.5 106.5,318.5C 103.713,319.477 100.713,319.81 97.5,319.5C 97.6782,322.879 97.6782,326.045 97.5,329C 93.9743,330.337 90.3076,330.837 86.5,330.5C 86.7839,333.777 86.4505,336.943 85.5,340C 82.1832,340.498 78.8499,340.665 75.5,340.5C 78.5,339.833 81.5,339.167 84.5,338.5C 84.2161,335.223 84.5495,332.057 85.5,329C 88.8168,328.502 92.1501,328.335 95.5,328.5C 95.1872,324.958 95.5206,321.625 96.5,318.5 Z"/></g>
<g><path style="opacity:0.549" fill="#f9cf97" d="M 402.5,317.5 C 402.833,317.5 403.167,317.5 403.5,317.5C 404.205,320.228 404.872,323.061 405.5,326C 405.167,326.333 404.833,326.667 404.5,327C 408.025,327.179 411.359,327.679 414.5,328.5C 410.818,328.665 407.152,328.499 403.5,328C 402.544,324.606 402.211,321.106 402.5,317.5 Z"/></g>
<g><path style="opacity:0.055" fill="#fdf2db" d="M 370.5,293.5 C 370.5,294.5 370.5,295.5 370.5,296.5C 366.671,295.931 363.337,296.598 360.5,298.5C 360.777,301.448 360.444,304.281 359.5,307C 356.242,307.212 353.076,307.712 350,308.5C 349.5,315.158 349.334,321.825 349.5,328.5C 346.5,328.5 343.5,328.5 340.5,328.5C 339.833,328.5 339.167,328.5 338.5,328.5C 338.335,331.85 338.502,335.183 339,338.5C 340.789,340.229 342.956,340.896 345.5,340.5C 343.105,341.814 340.605,341.814 338,340.5C 338.202,335.41 337.035,330.743 334.5,326.5C 335.833,325.5 337.167,324.5 338.5,323.5C 340.111,324.32 340.778,325.654 340.5,327.5C 343.146,327.108 345.646,327.108 348,327.5C 348.333,320.5 348.667,313.5 349,306.5C 352.149,305.479 355.316,305.312 358.5,306C 359.423,303.959 359.756,301.792 359.5,299.5C 359.5,298.167 359.5,296.833 359.5,295.5C 360.167,295.5 360.5,295.167 360.5,294.5C 362.696,294.59 364.863,294.923 367,295.5C 368.434,295.138 369.601,294.472 370.5,293.5 Z"/></g>
<g><path style="opacity:1" fill="#f98723" d="M 296.5,308.5 C 297.833,311.833 297.833,315.167 296.5,318.5C 293.167,318.5 289.833,318.5 286.5,318.5C 286.5,321.833 286.5,325.167 286.5,328.5C 255.329,328.169 224.329,328.502 193.5,329.5C 193.167,329.5 192.833,329.5 192.5,329.5C 192.167,329.5 191.833,329.5 191.5,329.5C 191.5,328.833 191.167,328.5 190.5,328.5C 192.336,320.673 189.336,317.34 181.5,318.5C 184.666,317.404 187.999,316.904 191.5,317C 192.456,320.394 192.789,323.894 192.5,327.5C 223.5,327.5 254.5,327.5 285.5,327.5C 285.5,323.833 285.5,320.167 285.5,316.5C 288.833,316.5 292.167,316.5 295.5,316.5C 295.194,313.615 295.527,310.948 296.5,308.5 Z"/></g>
<g><path style="opacity:0.553" fill="#e8815d" d="M 318.5,318.5 C 318.5,322.167 318.5,325.833 318.5,329.5C 315.167,329.5 311.833,329.5 308.5,329.5C 308.167,329.5 307.833,329.5 307.5,329.5C 310.625,328.521 313.958,328.187 317.5,328.5C 317.187,324.958 317.521,321.625 318.5,318.5 Z"/></g>
<g><path style="opacity:1" fill="#ec6622" d="M 193.5,329.5 C 224.329,328.502 255.329,328.169 286.5,328.5C 272.182,329.833 257.516,330.499 242.5,330.5C 226.147,330.462 209.814,330.129 193.5,329.5 Z"/></g>
<g><path style="opacity:0.034" fill="#fef8ea" d="M 308.5,329.5 C 311.833,329.5 315.167,329.5 318.5,329.5C 318.631,330.376 318.298,331.043 317.5,331.5C 315.253,330.626 312.92,330.292 310.5,330.5C 311.069,334.329 310.402,337.663 308.5,340.5C 308.5,336.833 308.5,333.167 308.5,329.5 Z"/></g>
<g><path style="opacity:0.039" fill="#fbf5e7" d="M 180.5,329.5 C 183.833,329.5 187.167,329.5 190.5,329.5C 190.5,333.167 190.5,336.833 190.5,340.5C 189.883,340.389 189.383,340.056 189,339.5C 188.502,336.518 188.335,333.518 188.5,330.5C 186.856,330.286 185.356,330.62 184,331.5C 182.698,330.915 181.531,330.249 180.5,329.5 Z"/></g>
<g><path style="opacity:0.731" fill="#f6aa44" d="M 149.5,338.5 C 149.5,338.833 149.5,339.167 149.5,339.5C 135.323,339.171 121.323,339.504 107.5,340.5C 106.521,343.625 106.187,346.958 106.5,350.5C 104.833,350.5 103.167,350.5 101.5,350.5C 102.568,349.566 103.901,349.232 105.5,349.5C 105.211,345.894 105.544,342.394 106.5,339C 120.829,338.5 135.163,338.333 149.5,338.5 Z"/></g>
<g><path style="opacity:0.741" fill="#f07655" d="M 191.5,329.5 C 191.833,329.5 192.167,329.5 192.5,329.5C 192.5,332.5 192.5,335.5 192.5,338.5C 199.354,338.176 206.021,338.509 212.5,339.5C 205.5,339.5 198.5,339.5 191.5,339.5C 191.5,336.167 191.5,332.833 191.5,329.5 Z"/></g>
<g><path style="opacity:0.716" fill="#f07553" d="M 307.5,329.5 C 307.5,332.833 307.5,336.167 307.5,339.5C 304.167,339.5 300.833,339.5 297.5,339.5C 300.023,338.746 302.689,338.08 305.5,337.5C 306.168,334.694 306.834,332.028 307.5,329.5 Z"/></g>
<g><path style="opacity:0.321" fill="#f3d29c" d="M 107.5,340.5 C 121.323,339.504 135.323,339.171 149.5,339.5C 148.866,340.947 147.699,341.613 146,341.5C 133.86,340.55 121.694,340.217 109.5,340.5C 108.833,340.5 108.167,340.5 107.5,340.5 Z"/></g>
<g><path style="opacity:0.333" fill="#fab29b" d="M 180.5,329.5 C 180.5,329.167 180.5,328.833 180.5,328.5C 183.833,328.5 187.167,328.5 190.5,328.5C 191.167,328.5 191.5,328.833 191.5,329.5C 191.5,332.833 191.5,336.167 191.5,339.5C 198.5,339.5 205.5,339.5 212.5,339.5C 212.5,339.833 212.5,340.167 212.5,340.5C 210.5,340.5 208.5,340.5 206.5,340.5C 200.99,341.211 195.657,341.211 190.5,340.5C 190.5,336.833 190.5,333.167 190.5,329.5C 187.167,329.5 183.833,329.5 180.5,329.5 Z"/></g>
<g><path style="opacity:0.329" fill="#f2b196" d="M 307.5,329.5 C 307.833,329.5 308.167,329.5 308.5,329.5C 308.5,333.167 308.5,336.833 308.5,340.5C 304.833,340.5 301.167,340.5 297.5,340.5C 297.5,340.167 297.5,339.833 297.5,339.5C 300.833,339.5 304.167,339.5 307.5,339.5C 307.5,336.167 307.5,332.833 307.5,329.5 Z"/></g>
<g><path style="opacity:0.316" fill="#f4c78b" d="M 338.5,328.5 C 339.167,328.5 339.833,328.5 340.5,328.5C 340.5,328.833 340.5,329.167 340.5,329.5C 340.5,332.5 340.5,335.5 340.5,338.5C 342.167,338.5 343.833,338.5 345.5,338.5C 357.5,339.167 369.5,339.833 381.5,340.5C 379.167,340.5 376.833,340.5 374.5,340.5C 364.833,340.5 355.167,340.5 345.5,340.5C 342.956,340.896 340.789,340.229 339,338.5C 338.502,335.183 338.335,331.85 338.5,328.5 Z"/></g>
<g><path style="opacity:0.014" fill="#faf9e4" d="M 297.5,340.5 C 301.167,340.5 304.833,340.5 308.5,340.5C 306.427,341.138 304.427,342.138 302.5,343.5C 301.742,342.189 300.742,341.689 299.5,342C 299.833,342.333 300.167,342.667 300.5,343C 300.154,345.94 299.154,348.44 297.5,350.5C 297.5,347.167 297.5,343.833 297.5,340.5 Z"/></g>
<g><path style="opacity:0.114" fill="#feedd8" d="M 422.5,338.5 C 423.542,337.209 424.708,337.209 426,338.5C 426.812,342.689 426.645,346.689 425.5,350.5C 425.665,347.15 425.498,343.817 425,340.5C 424.292,339.619 423.458,338.953 422.5,338.5 Z"/></g>
<g><path style="opacity:0.098" fill="#fcf2e9" d="M 374.5,340.5 C 376.833,340.5 379.167,340.5 381.5,340.5C 381.5,343.833 381.5,347.167 381.5,350.5C 380.681,347.695 380.181,344.695 380,341.5C 378.686,342.313 377.519,343.313 376.5,344.5C 375.638,343.234 374.971,341.901 374.5,340.5 Z"/></g>
<g><path style="opacity:0.269" fill="#f7dfca" d="M 206.5,340.5 C 208.5,340.5 210.5,340.5 212.5,340.5C 212.5,343.833 212.5,347.167 212.5,350.5C 214.167,350.5 215.833,350.5 217.5,350.5C 217.5,350.833 217.5,351.167 217.5,351.5C 210.319,352.759 207.986,349.759 210.5,342.5C 209.051,341.828 207.718,341.161 206.5,340.5 Z"/></g>
<g><path style="opacity:0.005" fill="#fefffe" d="M 340.5,346.5 C 338.535,346.052 338.202,345.052 339.5,343.5C 340.386,344.325 340.719,345.325 340.5,346.5 Z"/></g>
<g><path style="opacity:0.006" fill="#fefffe" d="M 305.5,345.5 C 307.337,345.639 307.67,346.306 306.5,347.5C 305.702,347.043 305.369,346.376 305.5,345.5 Z"/></g>
<g><path style="opacity:0.004" fill="#fefffe" d="M 340.5,346.5 C 341.833,347.167 341.833,347.167 340.5,346.5 Z"/></g>
<g><path style="opacity:0.733" fill="#fcc17f" d="M 414.5,332.5 C 415.461,334.265 415.795,336.265 415.5,338.5C 417.833,338.5 420.167,338.5 422.5,338.5C 423.458,338.953 424.292,339.619 425,340.5C 425.498,343.817 425.665,347.15 425.5,350.5C 424.833,350.5 424.167,350.5 423.5,350.5C 423.5,350.167 423.5,349.833 423.5,349.5C 423.5,346.5 423.5,343.5 423.5,340.5C 420.102,340.82 416.768,340.487 413.5,339.5C 414.374,337.253 414.708,334.92 414.5,332.5 Z"/></g>
<g><path style="opacity:0.204" fill="#fac792" d="M 73.5,338.5 C 77.1667,338.5 80.8333,338.5 84.5,338.5C 81.5,339.167 78.5,339.833 75.5,340.5C 75.5,343.5 75.5,346.5 75.5,349.5C 77.099,349.232 78.4324,349.566 79.5,350.5C 77.5,350.5 75.5,350.5 73.5,350.5C 72.3563,346.352 72.3563,342.352 73.5,338.5 Z"/></g>
<g><path style="opacity:0.039" fill="#fdfdf3" d="M 192.5,349.5 C 191.833,349.5 191.167,349.5 190.5,349.5C 180.167,349.5 169.833,349.5 159.5,349.5C 158.766,348.292 158.433,346.959 158.5,345.5C 159.873,345.343 161.207,345.51 162.5,346C 163.833,346.667 163.833,347.333 162.5,348C 170.833,348.667 179.167,348.667 187.5,348C 186.5,347.667 185.5,347.333 184.5,347C 187.339,342.584 190.339,342.417 193.5,346.5C 192.873,347.417 192.539,348.417 192.5,349.5 Z"/></g>
<g><path style="opacity:0.036" fill="#fefbec" d="M 340.5,349.5 C 340.167,349.5 339.833,349.5 339.5,349.5C 338.167,349.5 336.833,349.5 335.5,349.5C 326.5,349.5 317.5,349.5 308.5,349.5C 307.833,349.5 307.167,349.5 306.5,349.5C 315.658,348.67 324.991,348.17 334.5,348C 333.5,347.667 332.5,347.333 331.5,347C 333.09,345.954 334.59,344.787 336,343.5C 338.113,345.271 337.947,346.771 335.5,348C 337.382,348.198 339.048,348.698 340.5,349.5 Z"/></g>
<g><path style="opacity:0.016" fill="#fffeeb" d="M 342.5,350.5 C 342.948,348.535 343.948,348.202 345.5,349.5C 344.675,350.386 343.675,350.719 342.5,350.5 Z"/></g>
<g><path style="opacity:0.01" fill="#feffda" d="M 108.5,349.5 C 110.337,349.639 110.67,350.306 109.5,351.5C 108.702,351.043 108.369,350.376 108.5,349.5 Z"/></g>
<g><path style="opacity:0.57" fill="#f87351" d="M 212.5,339.5 C 213.201,342.563 213.868,345.73 214.5,349C 241.831,349.5 269.165,349.667 296.5,349.5C 296.187,345.958 296.521,342.625 297.5,339.5C 297.5,339.833 297.5,340.167 297.5,340.5C 297.5,343.833 297.5,347.167 297.5,350.5C 270.833,350.5 244.167,350.5 217.5,350.5C 215.833,350.5 214.167,350.5 212.5,350.5C 212.5,347.167 212.5,343.833 212.5,340.5C 212.5,340.167 212.5,339.833 212.5,339.5 Z"/></g>
<g><path style="opacity:0.519" fill="#f4a23e" d="M 345.5,338.5 C 358.167,338.5 370.833,338.5 383.5,338.5C 383.5,342.167 383.5,345.833 383.5,349.5C 396.833,349.5 410.167,349.5 423.5,349.5C 423.5,349.833 423.5,350.167 423.5,350.5C 409.5,350.5 395.5,350.5 381.5,350.5C 381.5,347.167 381.5,343.833 381.5,340.5C 369.5,339.833 357.5,339.167 345.5,338.5 Z"/></g>
<g><path style="opacity:0.052" fill="#feeeda" d="M 107.5,340.5 C 108.167,340.5 108.833,340.5 109.5,340.5C 109.047,341.458 108.381,342.292 107.5,343C 110.167,344 110.167,345 107.5,346C 107.854,347.626 107.854,349.459 107.5,351.5C 97.6534,351.563 87.9867,351.563 78.5,351.5C 76.399,354.114 74.7324,353.78 73.5,350.5C 75.5,350.5 77.5,350.5 79.5,350.5C 86.8333,350.5 94.1667,350.5 101.5,350.5C 103.167,350.5 104.833,350.5 106.5,350.5C 106.187,346.958 106.521,343.625 107.5,340.5 Z"/></g>
<g><path style="opacity:0.113" fill="#eef3c9" d="M 217.5,351.5 C 217.5,351.167 217.5,350.833 217.5,350.5C 244.167,350.5 270.833,350.5 297.5,350.5C 297.719,351.675 297.386,352.675 296.5,353.5C 270.326,351.521 243.992,350.855 217.5,351.5 Z"/></g>
<g><path style="opacity:0.063" fill="#f5f3e5" d="M 381.5,350.5 C 395.5,350.5 409.5,350.5 423.5,350.5C 424.167,350.5 424.833,350.5 425.5,350.5C 425.26,353.293 424.26,353.793 422.5,352C 416.333,351.833 410.167,351.667 404,351.5C 396.511,351.557 389.345,351.89 382.5,352.5C 381.702,352.043 381.369,351.376 381.5,350.5 Z"/></g>
<g><path style="opacity:0.012" fill="#fffedd" d="M 378.5,349.5 C 379.776,350.386 379.776,351.386 378.5,352.5C 377.438,351.575 377.438,350.575 378.5,349.5 Z"/></g>
<g><path style="opacity:1" fill="#f79320" d="M 200.5,361.5 C 201.167,361.5 201.5,361.833 201.5,362.5C 201.5,365.833 201.5,369.167 201.5,372.5C 204.833,372.5 208.167,372.5 211.5,372.5C 211.5,375.833 211.5,379.167 211.5,382.5C 205.167,382.5 198.833,382.5 192.5,382.5C 190.612,384.988 189.945,387.988 190.5,391.5C 187.482,391.335 184.482,391.502 181.5,392C 180.643,392.689 179.977,393.522 179.5,394.5C 179.782,396.987 179.782,399.653 179.5,402.5C 176.167,402.5 172.833,402.5 169.5,402.5C 169.5,405.833 169.5,409.167 169.5,412.5C 166.751,412.726 164.084,412.393 161.5,411.5C 158.863,414.999 157.863,418.999 158.5,423.5C 155.167,423.5 151.833,423.5 148.5,423.5C 148.5,413.167 148.5,402.833 148.5,392.5C 152.042,392.813 155.375,392.479 158.5,391.5C 160.318,378.872 161.152,365.872 161,352.5C 161.5,352 162,351.5 162.5,351C 171.5,350.333 180.5,350.333 189.5,351C 190.456,354.394 190.789,357.894 190.5,361.5C 193.833,361.5 197.167,361.5 200.5,361.5 Z"/></g>
<g><path style="opacity:0.239" fill="#fbdab1" d="M 190.5,349.5 C 191.167,349.5 191.833,349.5 192.5,349.5C 193.551,352.344 193.551,355.344 192.5,358.5C 194.216,358.629 195.883,358.962 197.5,359.5C 198.791,359.263 199.791,359.596 200.5,360.5C 197.5,360.5 194.5,360.5 191.5,360.5C 191.756,356.731 191.423,353.064 190.5,349.5 Z"/></g>
<g><path style="opacity:1" fill="#f79320" d="M 308.5,349.5 C 317.5,349.5 326.5,349.5 335.5,349.5C 336.209,350.404 337.209,350.737 338.5,350.5C 338.333,364.504 338.5,378.504 339,392.5C 342.8,393.729 346.633,393.729 350.5,392.5C 350.5,402.833 350.5,413.167 350.5,423.5C 347.167,423.5 343.833,423.5 340.5,423.5C 340.82,420.102 340.487,416.768 339.5,413.5C 336.579,412.593 333.579,412.26 330.5,412.5C 330.5,410.167 330.5,407.833 330.5,405.5C 331.5,405.5 332.5,405.5 333.5,405.5C 333.714,401.743 332.714,401.076 330.5,403.5C 326.906,402.574 323.24,402.241 319.5,402.5C 318.854,399.149 318.521,395.816 318.5,392.5C 311.532,391.503 304.532,391.17 297.5,391.5C 297.5,388.167 297.5,384.833 297.5,381.5C 294.5,381.5 291.5,381.5 288.5,381.5C 288.5,378.5 288.5,375.5 288.5,372.5C 291.5,372.5 294.5,372.5 297.5,372.5C 297.335,369.15 297.502,365.817 298,362.5C 301.27,361.868 304.437,361.201 307.5,360.5C 308.482,357.038 308.815,353.371 308.5,349.5 Z"/></g>
<g><path style="opacity:0.714" fill="#f5a851" d="M 335.5,349.5 C 336.833,349.5 338.167,349.5 339.5,349.5C 339.171,363.677 339.504,377.677 340.5,391.5C 340.833,391.5 341.167,391.5 341.5,391.5C 343.167,392.833 344.833,392.833 346.5,391.5C 348.099,391.232 349.432,391.566 350.5,392.5C 346.633,393.729 342.8,393.729 339,392.5C 338.5,378.504 338.333,364.504 338.5,350.5C 337.209,350.737 336.209,350.404 335.5,349.5 Z"/></g>
<g><path style="opacity:0.729" fill="#f6ae5a" d="M 159.5,349.5 C 169.833,349.5 180.167,349.5 190.5,349.5C 191.423,353.064 191.756,356.731 191.5,360.5C 194.5,360.5 197.5,360.5 200.5,360.5C 200.5,360.833 200.5,361.167 200.5,361.5C 197.167,361.5 193.833,361.5 190.5,361.5C 190.789,357.894 190.456,354.394 189.5,351C 180.5,350.333 171.5,350.333 162.5,351C 162,351.5 161.5,352 161,352.5C 161.152,365.872 160.318,378.872 158.5,391.5C 158.171,377.323 158.504,363.323 159.5,349.5 Z"/></g>
<g><path style="opacity:0.255" fill="#f5d3a2" d="M 306.5,349.5 C 307.167,349.5 307.833,349.5 308.5,349.5C 308.815,353.371 308.482,357.038 307.5,360.5C 303.5,360.5 299.5,360.5 295.5,360.5C 299.021,359.834 302.687,359.167 306.5,358.5C 305.789,355.25 305.789,352.25 306.5,349.5 Z"/></g>
<g><path style="opacity:0.01" fill="#fefffe" d="M 295.5,355.5 C 297.288,355.215 298.955,355.548 300.5,356.5C 299.667,356.833 298.833,357.167 298,357.5C 296.624,357.316 295.791,356.649 295.5,355.5 Z"/></g>
<g><path style="opacity:0.299" fill="#f5cca1" d="M 339.5,349.5 C 339.833,349.5 340.167,349.5 340.5,349.5C 341.167,349.833 341.833,350.167 342.5,350.5C 342.013,351.473 341.513,352.473 341,353.5C 340.5,366.162 340.333,378.829 340.5,391.5C 339.504,377.677 339.171,363.677 339.5,349.5 Z"/></g>
<g><path style="opacity:0.006" fill="#fefffe" d="M 205.5,363.5 C 206.525,363.897 206.692,364.563 206,365.5C 205.536,364.906 205.369,364.239 205.5,363.5 Z"/></g>
<g><path style="opacity:0.005" fill="#fefffe" d="M 207.5,364.5 C 210.797,364.329 211.131,364.995 208.5,366.5C 207.702,366.043 207.369,365.376 207.5,364.5 Z"/></g>
<g><path style="opacity:0.028" fill="#fefae6" d="M 295.5,362.5 C 296.833,365.167 296.833,367.833 295.5,370.5C 293.283,368.92 290.616,367.92 287.5,367.5C 290.167,366.833 292.833,366.167 295.5,365.5C 294.975,364.808 294.308,364.308 293.5,364C 294.416,363.722 295.082,363.222 295.5,362.5 Z"/></g>
<g><path style="opacity:0.004" fill="#fefffe" d="M 206.5,367.5 C 207.833,368.167 207.833,368.167 206.5,367.5 Z"/></g>
<g><path style="opacity:0.01" fill="#fdf9f0" d="M 213.5,381.5 C 213.665,378.15 213.498,374.817 213,371.5C 209.606,370.544 206.106,370.211 202.5,370.5C 202.806,367.615 202.473,364.948 201.5,362.5C 201.5,361.833 201.167,361.5 200.5,361.5C 200.5,361.167 200.5,360.833 200.5,360.5C 199.791,359.596 198.791,359.263 197.5,359.5C 196.334,357.834 196.334,356.167 197.5,354.5C 198.429,355.689 198.762,357.022 198.5,358.5C 199.822,358.67 200.989,358.337 202,357.5C 202.635,358.966 203.469,360.3 204.5,361.5C 204.086,364.032 203.752,366.532 203.5,369C 206.833,369.333 210.167,369.667 213.5,370C 214.126,370.75 214.626,371.584 215,372.5C 215.333,372.167 215.667,371.833 216,371.5C 216.825,375.211 216.659,378.878 215.5,382.5C 214.817,382.137 214.15,381.804 213.5,381.5 Z"/></g>
<g><path style="opacity:0.241" fill="#f6af5a" d="M 201.5,362.5 C 202.473,364.948 202.806,367.615 202.5,370.5C 206.106,370.211 209.606,370.544 213,371.5C 213.498,374.817 213.665,378.15 213.5,381.5C 213.5,381.833 213.5,382.167 213.5,382.5C 212.833,382.5 212.167,382.5 211.5,382.5C 211.5,379.167 211.5,375.833 211.5,372.5C 208.167,372.5 204.833,372.5 201.5,372.5C 201.5,369.167 201.5,365.833 201.5,362.5 Z"/></g>
<g><path style="opacity:0.004" fill="#fefbf6" d="M 228.5,370.5 C 222.169,370.11 219.836,373.11 221.5,379.5C 218.103,378.033 217.77,376.033 220.5,373.5C 219.674,372.549 219.508,371.549 220,370.5C 222.937,369.183 225.77,369.183 228.5,370.5 Z"/></g>
<g><path style="opacity:0.904" fill="#f4a13d" d="M 274.5,372.5 C 257.833,372.5 241.167,372.5 224.5,372.5C 224.5,382.167 224.5,391.833 224.5,401.5C 228.012,400.945 231.012,401.612 233.5,403.5C 230.482,403.665 227.482,403.498 224.5,403C 223.944,402.617 223.611,402.117 223.5,401.5C 223.5,391.5 223.5,381.5 223.5,371.5C 240.675,371.17 257.675,371.503 274.5,372.5 Z"/></g>
<g><path style="opacity:1" fill="#f79320" d="M 274.5,372.5 C 274.666,382.172 274.5,391.839 274,401.5C 271.333,402.833 268.667,402.833 266,401.5C 265.536,402.094 265.369,402.761 265.5,403.5C 265.5,413.833 265.5,424.167 265.5,434.5C 261.833,434.5 258.167,434.5 254.5,434.5C 254.5,438.5 254.5,442.5 254.5,446.5C 251.119,446.54 247.786,446.207 244.5,445.5C 244.5,441.833 244.5,438.167 244.5,434.5C 241.167,434.5 237.833,434.5 234.5,434.5C 233.833,425.167 233.167,415.833 232.5,406.5C 232.5,406.167 232.5,405.833 232.5,405.5C 233.338,405.158 233.672,404.492 233.5,403.5C 231.012,401.612 228.012,400.945 224.5,401.5C 224.5,391.833 224.5,382.167 224.5,372.5C 241.167,372.5 257.833,372.5 274.5,372.5 Z"/></g>
<g><path style="opacity:0.355" fill="#fdba6d" d="M 277.5,403.5 C 273.5,403.5 269.5,403.5 265.5,403.5C 265.369,402.761 265.536,402.094 266,401.5C 268.667,402.833 271.333,402.833 274,401.5C 274.5,391.839 274.666,382.172 274.5,372.5C 257.675,371.503 240.675,371.17 223.5,371.5C 223.5,381.5 223.5,391.5 223.5,401.5C 222.833,401.167 222.167,400.833 221.5,400.5C 221.5,393.5 221.5,386.5 221.5,379.5C 219.836,373.11 222.169,370.11 228.5,370.5C 244.518,370.49 260.518,370.324 276.5,370C 277.487,381.085 277.821,392.252 277.5,403.5 Z"/></g>
<g><path style="opacity:0.043" fill="#fdf6ee" d="M 192.5,383.5 C 192.5,383.167 192.5,382.833 192.5,382.5C 198.833,382.5 205.167,382.5 211.5,382.5C 212.167,382.5 212.833,382.5 213.5,382.5C 212.504,383.665 211.171,384.332 209.5,384.5C 203.694,383.591 198.028,383.258 192.5,383.5 Z"/></g>
<g><path style="opacity:0.006" fill="#fff8f2" d="M 285.5,382.5 C 289.167,382.5 292.833,382.5 296.5,382.5C 296.81,385.713 296.477,388.713 295.5,391.5C 295.813,388.753 295.48,386.086 294.5,383.5C 293.061,384.063 291.561,384.397 290,384.5C 287.992,384.693 286.492,384.026 285.5,382.5 Z"/></g>
<g><path style="opacity:0.217" fill="#f0ca88" d="M 192.5,382.5 C 192.5,382.833 192.5,383.167 192.5,383.5C 192.5,386.167 192.5,388.833 192.5,391.5C 191.713,393.104 190.38,393.771 188.5,393.5C 189.167,392.833 189.833,392.167 190.5,391.5C 189.945,387.988 190.612,384.988 192.5,382.5 Z"/></g>
<g><path style="opacity:0.745" fill="#f3ae54" d="M 190.5,391.5 C 189.833,392.167 189.167,392.833 188.5,393.5C 187.5,393.5 186.5,393.5 185.5,393.5C 185.167,393.5 184.833,393.5 184.5,393.5C 183.5,393.5 182.5,393.5 181.5,393.5C 181.664,396.187 181.497,398.854 181,401.5C 180.617,402.056 180.117,402.389 179.5,402.5C 179.782,399.653 179.782,396.987 179.5,394.5C 179.977,393.522 180.643,392.689 181.5,392C 184.482,391.502 187.482,391.335 190.5,391.5 Z"/></g>
<g><path style="opacity:0.31" fill="#fce0bd" d="M 346.5,391.5 C 344.833,392.833 343.167,392.833 341.5,391.5C 342.222,391.082 342.722,390.416 343,389.5C 343.816,390.823 344.983,391.489 346.5,391.5 Z"/></g>
<g><path style="opacity:0.016" fill="#fef6e5" d="M 192.5,391.5 C 193.774,392.189 193.774,393.023 192.5,394C 190.444,394.311 188.444,394.811 186.5,395.5C 185.702,395.043 185.369,394.376 185.5,393.5C 186.5,393.5 187.5,393.5 188.5,393.5C 190.38,393.771 191.713,393.104 192.5,391.5 Z"/></g>
<g><path style="opacity:0.345" fill="#faac54" d="M 295.5,360.5 C 299.5,360.5 303.5,360.5 307.5,360.5C 304.437,361.201 301.27,361.868 298,362.5C 297.502,365.817 297.335,369.15 297.5,372.5C 294.5,372.5 291.5,372.5 288.5,372.5C 288.5,375.5 288.5,378.5 288.5,381.5C 291.5,381.5 294.5,381.5 297.5,381.5C 297.5,384.833 297.5,388.167 297.5,391.5C 304.532,391.17 311.532,391.503 318.5,392.5C 318.521,395.816 318.854,399.149 319.5,402.5C 318.833,402.167 318.167,401.833 317.5,401.5C 317.817,398.428 317.484,395.428 316.5,392.5C 309.892,393.462 303.226,393.795 296.5,393.5C 295.662,393.158 295.328,392.492 295.5,391.5C 296.477,388.713 296.81,385.713 296.5,382.5C 292.833,382.5 289.167,382.5 285.5,382.5C 285.5,378.5 285.5,374.5 285.5,370.5C 288.833,370.5 292.167,370.5 295.5,370.5C 296.833,367.833 296.833,365.167 295.5,362.5C 295.5,361.833 295.5,361.167 295.5,360.5 Z"/></g>
<g><path style="opacity:0.024" fill="#fdf8ec" d="M 317.5,401.5 C 317.557,402.609 317.89,403.609 318.5,404.5C 316.598,401.663 315.931,398.329 316.5,394.5C 309.44,394.449 302.44,394.616 295.5,395C 296.056,394.617 296.389,394.117 296.5,393.5C 303.226,393.795 309.892,393.462 316.5,392.5C 317.484,395.428 317.817,398.428 317.5,401.5 Z"/></g>
<g><path style="opacity:0.561" fill="#f3b568" d="M 179.5,402.5 C 176.713,403.477 173.713,403.81 170.5,403.5C 170.81,406.713 170.477,409.713 169.5,412.5C 169.5,409.167 169.5,405.833 169.5,402.5C 172.833,402.5 176.167,402.5 179.5,402.5 Z"/></g>
<g><path style="opacity:0.184" fill="#fddfc0" d="M 221.5,400.5 C 222.167,400.833 222.833,401.167 223.5,401.5C 223.611,402.117 223.944,402.617 224.5,403C 227.482,403.498 230.482,403.665 233.5,403.5C 233.672,404.492 233.338,405.158 232.5,405.5C 231.5,405.5 230.5,405.5 229.5,405.5C 226.68,405.663 223.68,405.163 220.5,404C 219.2,402.421 219.534,401.255 221.5,400.5 Z"/></g>
<g><path style="opacity:0.008" fill="#fefffe" d="M 229.5,405.5 C 230.234,406.708 230.567,408.041 230.5,409.5C 227.588,408.422 227.254,407.088 229.5,405.5 Z"/></g>
<g><path style="opacity:0.008" fill="#fffecf" d="M 325.5,405.5 C 325.798,408.336 325.131,408.836 323.5,407C 324.044,406.283 324.711,405.783 325.5,405.5 Z"/></g>
<g><path style="opacity:0.004" fill="#fefffe" d="M 173.5,406.5 C 174.833,407.167 174.833,407.167 173.5,406.5 Z"/></g>
<g><path style="opacity:0.175" fill="#fcdaad" d="M 317.5,401.5 C 318.167,401.833 318.833,402.167 319.5,402.5C 322.287,403.477 325.287,403.81 328.5,403.5C 328.01,407.487 328.676,411.154 330.5,414.5C 329.5,414.5 328.5,414.5 327.5,414.5C 327.5,412.833 327.5,411.167 327.5,409.5C 327.66,407.801 327.494,406.134 327,404.5C 326.617,405.056 326.117,405.389 325.5,405.5C 323.393,404.532 321.059,404.198 318.5,404.5C 317.89,403.609 317.557,402.609 317.5,401.5 Z"/></g>
<g><path style="opacity:0.973" fill="#f0a647" d="M 340.5,423.5 C 339.599,422.71 338.932,421.71 338.5,420.5C 338.5,418.833 338.5,417.167 338.5,415.5C 336.052,414.527 333.385,414.194 330.5,414.5C 328.676,411.154 328.01,407.487 328.5,403.5C 325.287,403.81 322.287,403.477 319.5,402.5C 323.24,402.241 326.906,402.574 330.5,403.5C 332.714,401.076 333.714,401.743 333.5,405.5C 332.5,405.5 331.5,405.5 330.5,405.5C 330.5,407.833 330.5,410.167 330.5,412.5C 333.579,412.26 336.579,412.593 339.5,413.5C 340.487,416.768 340.82,420.102 340.5,423.5 Z"/></g>
<g><path style="opacity:0.071" fill="#fbeee7" d="M 158.5,391.5 C 155.375,392.479 152.042,392.813 148.5,392.5C 148.5,402.833 148.5,413.167 148.5,423.5C 148.5,424.167 148.5,424.833 148.5,425.5C 147.693,414.325 147.026,402.992 146.5,391.5C 150.5,391.5 154.5,391.5 158.5,391.5 Z"/></g>
<g><path style="opacity:0.278" fill="#f5ab51" d="M 169.5,412.5 C 169.389,413.117 169.056,413.617 168.5,414C 165.518,414.498 162.518,414.665 159.5,414.5C 159.815,418.371 159.482,422.038 158.5,425.5C 155.167,425.5 151.833,425.5 148.5,425.5C 148.5,424.833 148.5,424.167 148.5,423.5C 151.833,423.5 155.167,423.5 158.5,423.5C 157.863,418.999 158.863,414.999 161.5,411.5C 164.084,412.393 166.751,412.726 169.5,412.5 Z"/></g>
<g><path style="opacity:0.008" fill="#fffbf5" d="M 327.5,409.5 C 327.5,411.167 327.5,412.833 327.5,414.5C 328.5,414.5 329.5,414.5 330.5,414.5C 333.385,414.194 336.052,414.527 338.5,415.5C 334.61,415.272 330.776,415.606 327,416.5C 326.5,416.167 326,415.833 325.5,415.5C 326.05,413.343 326.717,411.343 327.5,409.5 Z"/></g>
<g><path style="opacity:0.004" fill="#fefffe" d="M 332.5,416.5 C 333.833,417.167 333.833,417.167 332.5,416.5 Z"/></g>
<g><path style="opacity:0.157" fill="#faeaca" d="M 184.5,393.5 C 182.702,396.831 182.036,400.498 182.5,404.5C 180.516,404.383 178.85,405.05 177.5,406.5C 175.821,404.896 173.821,404.229 171.5,404.5C 172.285,408.359 172.118,412.025 171,415.5C 167.403,415.07 163.903,415.737 160.5,417.5C 161.263,420.141 161.43,422.808 161,425.5C 160.023,426.774 159.189,426.774 158.5,425.5C 159.482,422.038 159.815,418.371 159.5,414.5C 162.518,414.665 165.518,414.498 168.5,414C 169.056,413.617 169.389,413.117 169.5,412.5C 170.477,409.713 170.81,406.713 170.5,403.5C 173.713,403.81 176.713,403.477 179.5,402.5C 180.117,402.389 180.617,402.056 181,401.5C 181.497,398.854 181.664,396.187 181.5,393.5C 182.5,393.5 183.5,393.5 184.5,393.5 Z"/></g>
<g><path style="opacity:0.212" fill="#fcd3b4" d="M 350.5,392.5 C 351.833,403.5 351.833,414.5 350.5,425.5C 346.671,426.069 343.337,425.402 340.5,423.5C 343.833,423.5 347.167,423.5 350.5,423.5C 350.5,413.167 350.5,402.833 350.5,392.5 Z"/></g>
<g><path style="opacity:0.031" fill="#fef1d8" d="M 338.5,420.5 C 338.932,421.71 339.599,422.71 340.5,423.5C 343.337,425.402 346.671,426.069 350.5,425.5C 346.689,426.645 342.689,426.812 338.5,426C 337.193,424.057 337.193,422.223 338.5,420.5 Z"/></g>
<g><path style="opacity:0.096" fill="#ffe9cc" d="M 232.5,406.5 C 233.167,415.833 233.833,425.167 234.5,434.5C 237.477,434.902 240.143,435.902 242.5,437.5C 240.227,436.305 237.894,436.305 235.5,437.5C 233.813,437.24 232.313,436.573 231,435.5C 231.766,426.825 231.6,418.159 230.5,409.5C 231.167,408.5 231.833,407.5 232.5,406.5 Z"/></g>
<g><path style="opacity:0.086" fill="#fcdcb8" d="M 265.5,403.5 C 269.5,403.5 273.5,403.5 277.5,403.5C 274.605,405.649 271.438,405.983 268,404.5C 267.667,414.833 267.333,425.167 267,435.5C 266.5,436 266,436.5 265.5,437C 262.47,437.288 259.636,437.455 257,437.5C 256.721,441.17 256.888,444.837 257.5,448.5C 252.851,447.935 248.184,447.435 243.5,447C 242.833,446 242.167,445 241.5,444C 242.423,441.959 242.756,439.792 242.5,437.5C 240.143,435.902 237.477,434.902 234.5,434.5C 237.833,434.5 241.167,434.5 244.5,434.5C 244.5,438.167 244.5,441.833 244.5,445.5C 247.786,446.207 251.119,446.54 254.5,446.5C 254.5,442.5 254.5,438.5 254.5,434.5C 258.167,434.5 261.833,434.5 265.5,434.5C 265.5,424.167 265.5,413.833 265.5,403.5 Z"/></g>
</svg>
